<svg xmlns="http://www.w3.org/2000/svg" class="artemis-avatar" viewBox="0 0 788 510" preserveAspectRatio="xMidYMid meet" style="display:block;width:100%;height:auto;max-width:100%;">
<style>svg.artemis-avatar { --avatar-speed: 2s; overflow: visible; }svg.artemis-avatar .sclera_lit{fill:#c8a868;}.sclera_mid{fill:#a08850;}.sclera_dim{fill:#705a38;}.iris_outer{fill:#1a0e05;}.iris_dark{fill:#4a2810;}.iris_mid{fill:#7a4818;}.iris_lit{fill:#a86830;}.iris_bright{fill:#cc8838;}.iris_glow{fill:#e8a040;}.pupil{fill:#000000;}.catchlight{fill:#ffffff;}.lid_shadow{fill:#1a0a05;}.corner_dark{fill:#3a2010;}@media (prefers-color-scheme: dark){.sclera_lit{fill:#f0e6d0;}.sclera_mid{fill:#c8b48c;}.sclera_dim{fill:#806e50;}.iris_outer{fill:#3a2615;}.iris_dark{fill:#5a3818;}.iris_mid{fill:#a06830;}.iris_lit{fill:#d89e58;}.iris_bright{fill:#f5c878;}.iris_glow{fill:#ffe0a0;}.pupil{fill:#000000;}.catchlight{fill:#ffffff;}.lid_shadow{fill:#2a1a10;}.corner_dark{fill:#4a3020;}}</style>
<g class="frame"><text font-family="ui-monospace,Menlo,Consolas,Monaco,&quot;Courier New&quot;,monospace" font-size="11" xml:space="preserve"><tspan x="304.4" y="80" class="corner_dark">....</tspan><tspan x="330.0" y="80" class="sclera_dim">..'''''''```'''''''..</tspan><tspan x="464.4" y="80" class="corner_dark">....</tspan><tspan x="227.6" y="92" class="corner_dark">..</tspan><tspan x="240.4" y="92" class="sclera_dim">.'``,,::</tspan><tspan x="291.6" y="92" class="sclera_mid">;;!!!iiiillllllllllllllliiii!!!;;</tspan><tspan x="502.8" y="92" class="sclera_dim">::,,``'.</tspan><tspan x="554.0" y="92" class="corner_dark">..</tspan><tspan x="176.4" y="104" class="corner_dark">..</tspan><tspan x="189.2" y="104" class="sclera_dim">.'`,::</tspan><tspan x="227.6" y="104" class="sclera_mid">;!iillII(()</tspan><tspan x="298.0" y="104" class="sclera_lit">)111tttjjjjjjjjjjjjjjjjjttt111)</tspan><tspan x="496.4" y="104" class="sclera_mid">)((IIllii!;</tspan><tspan x="566.8" y="104" class="sclera_dim">::,`'.</tspan><tspan x="605.2" y="104" class="corner_dark">..</tspan><tspan x="144.4" y="116" class="corner_dark">.</tspan><tspan x="150.8" y="116" class="sclera_dim">.'`,:</tspan><tspan x="182.8" y="116" class="sclera_mid">;!ilII()</tspan><tspan x="234.0" y="116" class="sclera_lit">11tjjrrrrrrrrrrrrrrrrrrrrrrrrrrrrrrrrrrrrrrrrrjjt11</tspan><tspan x="560.4" y="116" class="sclera_mid">)(IIli!;</tspan><tspan x="611.6" y="116" class="sclera_dim">:,`'.</tspan><tspan x="643.6" y="116" class="corner_dark">.</tspan><tspan x="112.4" y="128" class="corner_dark">..</tspan><tspan x="125.2" y="128" class="sclera_dim">'`,</tspan><tspan x="144.4" y="128" class="sclera_mid">;!ilI()</tspan><tspan x="189.2" y="128" class="sclera_lit">)1tjrrrrrrrrrrrrrrrrrrrrr</tspan><tspan x="349.2" y="128" class="iris_outer">'`,</tspan><tspan x="368.4" y="128" class="iris_dark">::</tspan><tspan x="381.2" y="128" class="iris_outer">,,</tspan><tspan x="394.0" y="128" class="iris_dark">;;</tspan><tspan x="406.8" y="128" class="iris_outer">:``,,`</tspan><tspan x="445.2" y="128" class="sclera_lit">rrrrrrrrrrrrrrrrrrrrrjt1)</tspan><tspan x="605.2" y="128" class="sclera_mid">)(Ili!;</tspan><tspan x="650.0" y="128" class="sclera_dim">,`'</tspan><tspan x="669.2" y="128" class="corner_dark">..</tspan><tspan x="86.8" y="140" class="corner_dark">...</tspan><tspan x="106.0" y="140" class="sclera_dim">'`,:</tspan><tspan x="131.6" y="140" class="sclera_mid">!lI)</tspan><tspan x="157.2" y="140" class="sclera_lit">1tjrrrrrrrrrrrrrrrrrrrrrr</tspan><tspan x="317.2" y="140" class="iris_outer">,`,::</tspan><tspan x="349.2" y="140" class="iris_mid">l</tspan><tspan x="355.6" y="140" class="iris_dark">!i</tspan><tspan x="368.4" y="140" class="iris_lit">1j1</tspan><tspan x="387.6" y="140" class="iris_mid">(</tspan><tspan x="394.0" y="140" class="iris_lit">t/t</tspan><tspan x="413.2" y="140" class="iris_mid">l</tspan><tspan x="419.6" y="140" class="iris_dark">i</tspan><tspan x="426.0" y="140" class="iris_mid">()l</tspan><tspan x="445.2" y="140" class="iris_outer">`,</tspan><tspan x="458.0" y="140" class="iris_dark">;;</tspan><tspan x="470.8" y="140" class="iris_outer">:</tspan><tspan x="477.2" y="140" class="sclera_lit">rrrrrrrrrrrrrrrrrrrrrrjt1</tspan><tspan x="637.2" y="140" class="sclera_mid">)Il!</tspan><tspan x="662.8" y="140" class="sclera_dim">:,`'</tspan><tspan x="688.4" y="140" class="corner_dark">...</tspan><tspan x="67.6" y="152" class="corner_dark">....</tspan><tspan x="93.2" y="152" class="sclera_dim">'`,:</tspan><tspan x="118.8" y="152" class="sclera_mid">!l(</tspan><tspan x="138.0" y="152" class="sclera_lit">1jrrrrrrrrrrrrrrrrrrrrrrr</tspan><tspan x="298.0" y="152" class="iris_outer">,</tspan><tspan x="304.4" y="152" class="iris_dark">:;</tspan><tspan x="317.2" y="152" class="iris_lit">/t</tspan><tspan x="330.0" y="152" class="iris_mid">II1</tspan><tspan x="349.2" y="152" class="iris_lit">t</tspan><tspan x="355.6" y="152" class="iris_mid">(</tspan><tspan x="362.0" y="152" class="iris_dark">i</tspan><tspan x="368.4" y="152" class="iris_mid">I</tspan><tspan x="374.8" y="152" class="iris_lit">jr</tspan><tspan x="387.6" y="152" class="iris_mid">1</tspan><tspan x="394.0" y="152" class="iris_lit">1/r</tspan><tspan x="413.2" y="152" class="iris_mid">Il)1ll</tspan><tspan x="451.6" y="152" class="iris_lit">t/t</tspan><tspan x="470.8" y="152" class="iris_mid">(</tspan><tspan x="477.2" y="152" class="iris_outer">,</tspan><tspan x="483.6" y="152" class="iris_dark">::</tspan><tspan x="496.4" y="152" class="sclera_lit">rrrrrrrrrrrrrrrrrrrrrrrj1</tspan><tspan x="656.4" y="152" class="sclera_mid">(l!</tspan><tspan x="675.6" y="152" class="sclera_dim">:,`'</tspan><tspan x="701.2" y="152" class="corner_dark">....</tspan><tspan x="48.4" y="164" class="corner_dark">......</tspan><tspan x="86.8" y="164" class="sclera_dim">'`,</tspan><tspan x="106.0" y="164" class="sclera_mid">;iI)</tspan><tspan x="131.6" y="164" class="sclera_lit">1jrrrrrrrrrrrrrrrrrrrrr</tspan><tspan x="278.8" y="164" class="iris_outer">,:,</tspan><tspan x="298.0" y="164" class="iris_mid">(I(</tspan><tspan x="317.2" y="164" class="iris_lit">j</tspan><tspan x="323.6" y="164" class="iris_bright">f</tspan><tspan x="330.0" y="164" class="iris_lit">/</tspan><tspan x="336.4" y="164" class="iris_mid">1(1</tspan><tspan x="355.6" y="164" class="iris_lit">t</tspan><tspan x="362.0" y="164" class="iris_mid">(</tspan><tspan x="368.4" y="164" class="iris_dark">i</tspan><tspan x="374.8" y="164" class="iris_mid">)</tspan><tspan x="381.2" y="164" class="iris_lit">/j1//</tspan><tspan x="413.2" y="164" class="iris_mid">(I</tspan><tspan x="426.0" y="164" class="iris_lit">t</tspan><tspan x="432.4" y="164" class="iris_mid">1l)</tspan><tspan x="451.6" y="164" class="iris_lit">/r</tspan><tspan x="464.4" y="164" class="iris_mid">))</tspan><tspan x="477.2" y="164" class="iris_lit">tj</tspan><tspan x="490.0" y="164" class="iris_mid">(</tspan><tspan x="496.4" y="164" class="iris_outer">''`</tspan><tspan x="515.6" y="164" class="sclera_lit">rrrrrrrrrrrrrrrrrrrrrj1</tspan><tspan x="662.8" y="164" class="sclera_mid">)Ii;</tspan><tspan x="688.4" y="164" class="sclera_dim">,`'</tspan><tspan x="707.6" y="164" class="corner_dark">......</tspan><tspan x="35.6" y="176" class="corner_dark">.......</tspan><tspan x="80.4" y="176" class="sclera_dim">'`,</tspan><tspan x="99.6" y="176" class="sclera_mid">;il()</tspan><tspan x="131.6" y="176" class="sclera_lit">1jrrrrrrrrrrrrrrrrrrr</tspan><tspan x="266.0" y="176" class="iris_outer">`''</tspan><tspan x="285.2" y="176" class="iris_dark">i</tspan><tspan x="291.6" y="176" class="iris_mid">(</tspan><tspan x="298.0" y="176" class="iris_lit">1t</tspan><tspan x="310.8" y="176" class="iris_mid">1()</tspan><tspan x="330.0" y="176" class="iris_lit">r</tspan><tspan x="336.4" y="176" class="iris_bright">x</tspan><tspan x="342.8" y="176" class="iris_lit">r</tspan><tspan x="349.2" y="176" class="iris_mid">)1</tspan><tspan x="362.0" y="176" class="iris_lit">j</tspan><tspan x="368.4" y="176" class="iris_mid">)I</tspan><tspan x="381.2" y="176" class="iris_lit">r/t/</tspan><tspan x="406.8" y="176" class="iris_bright">f</tspan><tspan x="413.2" y="176" class="iris_mid">((</tspan><tspan x="426.0" y="176" class="iris_lit">j</tspan><tspan x="432.4" y="176" class="iris_mid">)(</tspan><tspan x="445.2" y="176" class="iris_lit">/</tspan><tspan x="451.6" y="176" class="iris_bright">f</tspan><tspan x="458.0" y="176" class="iris_lit">t</tspan><tspan x="464.4" y="176" class="iris_mid">1</tspan><tspan x="470.8" y="176" class="iris_lit">jj</tspan><tspan x="483.6" y="176" class="iris_mid">(</tspan><tspan x="490.0" y="176" class="iris_dark">!i</tspan><tspan x="502.8" y="176" class="iris_mid">(</tspan><tspan x="509.2" y="176" class="iris_outer">:,`</tspan><tspan x="528.4" y="176" class="sclera_lit">rrrrrrrrrrrrrrrrrrrj1</tspan><tspan x="662.8" y="176" class="sclera_mid">)(li;</tspan><tspan x="694.8" y="176" class="sclera_dim">,`'</tspan><tspan x="714.0" y="176" class="corner_dark">.......</tspan><tspan x="22.8" y="188" class="corner_dark">.........</tspan><tspan x="80.4" y="188" class="sclera_dim">',:</tspan><tspan x="99.6" y="188" class="sclera_mid">!il()</tspan><tspan x="131.6" y="188" class="sclera_lit">1jrrrrrrrrrrrrrrrrrr</tspan><tspan x="259.6" y="188" class="iris_dark">:;</tspan><tspan x="272.4" y="188" class="iris_lit">t</tspan><tspan x="278.8" y="188" class="iris_mid">1I</tspan><tspan x="291.6" y="188" class="iris_dark">ii</tspan><tspan x="304.4" y="188" class="iris_mid">l1</tspan><tspan x="317.2" y="188" class="iris_lit">jt</tspan><tspan x="330.0" y="188" class="iris_mid">)</tspan><tspan x="336.4" y="188" class="iris_lit">t</tspan><tspan x="342.8" y="188" class="iris_bright">xx</tspan><tspan x="355.6" y="188" class="iris_lit">11r</tspan><tspan x="374.8" y="188" class="iris_mid">()</tspan><tspan x="387.6" y="188" class="iris_bright">x</tspan><tspan x="394.0" y="188" class="iris_lit">j/</tspan><tspan x="406.8" y="188" class="iris_bright">x</tspan><tspan x="413.2" y="188" class="iris_mid">(</tspan><tspan x="419.6" y="188" class="iris_lit">1j</tspan><tspan x="432.4" y="188" class="iris_mid">(</tspan><tspan x="438.8" y="188" class="iris_lit">j</tspan><tspan x="445.2" y="188" class="iris_bright">x</tspan><tspan x="451.6" y="188" class="iris_lit">j1rj</tspan><tspan x="477.2" y="188" class="iris_mid">I</tspan><tspan x="483.6" y="188" class="iris_dark">i</tspan><tspan x="490.0" y="188" class="iris_mid">(</tspan><tspan x="496.4" y="188" class="iris_lit">t1</tspan><tspan x="509.2" y="188" class="iris_mid">(I</tspan><tspan x="522.0" y="188" class="iris_outer">,</tspan><tspan x="528.4" y="188" class="iris_dark">:</tspan><tspan x="534.8" y="188" class="sclera_lit">rrrrrrrrrrrrrrrrrrj1</tspan><tspan x="662.8" y="188" class="sclera_mid">)(li!</tspan><tspan x="694.8" y="188" class="sclera_dim">:,'</tspan><tspan x="714.0" y="188" class="corner_dark">.........</tspan><tspan x="16.4" y="200" class="corner_dark">.........</tspan><tspan x="74.0" y="200" class="sclera_dim">.`,:</tspan><tspan x="99.6" y="200" class="sclera_mid">!il()</tspan><tspan x="131.6" y="200" class="sclera_lit">1jrrrrrrrrrrrrrrrrr</tspan><tspan x="253.2" y="200" class="iris_outer">,,</tspan><tspan x="266.0" y="200" class="iris_mid">()</tspan><tspan x="278.8" y="200" class="iris_lit">1jrj</tspan><tspan x="304.4" y="200" class="iris_mid">1Il)</tspan><tspan x="330.0" y="200" class="iris_lit">rr1/</tspan><tspan x="355.6" y="200" class="iris_bright">C</tspan><tspan x="362.0" y="200" class="iris_lit">jtr</tspan><tspan x="381.2" y="200" class="iris_mid">(</tspan><tspan x="387.6" y="200" class="iris_bright">f</tspan><tspan x="394.0" y="200" class="iris_lit">//</tspan><tspan x="406.8" y="200" class="iris_bright">x</tspan><tspan x="413.2" y="200" class="iris_mid">(</tspan><tspan x="419.6" y="200" class="iris_lit">r1t</tspan><tspan x="438.8" y="200" class="iris_bright">L</tspan><tspan x="445.2" y="200" class="iris_lit">rt/t</tspan><tspan x="470.8" y="200" class="iris_mid">lI</tspan><tspan x="483.6" y="200" class="iris_lit">tj</tspan><tspan x="496.4" y="200" class="iris_mid">)()</tspan><tspan x="515.6" y="200" class="iris_lit">j/</tspan><tspan x="528.4" y="200" class="iris_dark">;:</tspan><tspan x="541.2" y="200" class="sclera_lit">rrrrrrrrrrrrrrrrrj1</tspan><tspan x="662.8" y="200" class="sclera_mid">)(li!</tspan><tspan x="694.8" y="200" class="sclera_dim">:,`.</tspan><tspan x="720.4" y="200" class="corner_dark">.........</tspan><tspan x="10.0" y="212" class="corner_dark">..........</tspan><tspan x="74.0" y="212" class="sclera_dim">.`,:</tspan><tspan x="99.6" y="212" class="sclera_mid">!il()</tspan><tspan x="131.6" y="212" class="sclera_lit">1jrrrrrrrrrrrrrrrr</tspan><tspan x="246.8" y="212" class="iris_dark">;;</tspan><tspan x="259.6" y="212" class="iris_lit">//rjt</tspan><tspan x="291.6" y="212" class="iris_mid">11</tspan><tspan x="304.4" y="212" class="iris_lit">tr/j</tspan><tspan x="330.0" y="212" class="iris_mid">((</tspan><tspan x="342.8" y="212" class="iris_lit">//j</tspan><tspan x="362.0" y="212" class="iris_bright">C</tspan><tspan x="368.4" y="212" class="iris_lit">/jjj</tspan><tspan x="394.0" y="212" class="iris_bright">Lff</tspan><tspan x="413.2" y="212" class="iris_mid">1</tspan><tspan x="419.6" y="212" class="iris_lit">/t</tspan><tspan x="432.4" y="212" class="iris_bright">C</tspan><tspan x="438.8" y="212" class="iris_lit">rr</tspan><tspan x="451.6" y="212" class="iris_bright">f</tspan><tspan x="458.0" y="212" class="iris_mid">)I</tspan><tspan x="470.8" y="212" class="iris_lit">tr1</tspan><tspan x="490.0" y="212" class="iris_mid">)</tspan><tspan x="496.4" y="212" class="iris_lit">t/</tspan><tspan x="509.2" y="212" class="iris_bright">f</tspan><tspan x="515.6" y="212" class="iris_lit">r</tspan><tspan x="522.0" y="212" class="iris_mid">1I</tspan><tspan x="534.8" y="212" class="iris_outer">`,</tspan><tspan x="547.6" y="212" class="sclera_lit">rrrrrrrrrrrrrrrrj1</tspan><tspan x="662.8" y="212" class="sclera_mid">)(li!</tspan><tspan x="694.8" y="212" class="sclera_dim">:,`.</tspan><tspan x="720.4" y="212" class="corner_dark">.........</tspan><tspan x="10.0" y="224" class="corner_dark">..........</tspan><tspan x="74.0" y="224" class="sclera_dim">.`,:</tspan><tspan x="99.6" y="224" class="sclera_mid">!il()</tspan><tspan x="131.6" y="224" class="sclera_lit">1jrrrrrrrrrrrrrrr</tspan><tspan x="240.4" y="224" class="iris_outer">``</tspan><tspan x="253.2" y="224" class="iris_dark">i</tspan><tspan x="259.6" y="224" class="iris_mid">lI)</tspan><tspan x="278.8" y="224" class="iris_lit">tr</tspan><tspan x="291.6" y="224" class="iris_bright">fxxf</tspan><tspan x="317.2" y="224" class="iris_lit">jt/</tspan><tspan x="336.4" y="224" class="iris_bright">f</tspan><tspan x="342.8" y="224" class="iris_lit">t</tspan><tspan x="349.2" y="224" class="iris_mid">(</tspan><tspan x="355.6" y="224" class="iris_bright">f</tspan><tspan x="362.0" y="224" class="catchlight">@@@@</tspan><tspan x="387.6" y="224" class="pupil">....</tspan><tspan x="413.2" y="224" class="iris_outer">...</tspan><tspan x="432.4" y="224" class="iris_lit">r</tspan><tspan x="438.8" y="224" class="iris_bright">f</tspan><tspan x="445.2" y="224" class="iris_lit">j</tspan><tspan x="451.6" y="224" class="iris_mid">(</tspan><tspan x="458.0" y="224" class="iris_lit">r/tt/</tspan><tspan x="490.0" y="224" class="iris_bright">Lf</tspan><tspan x="502.8" y="224" class="iris_lit">t</tspan><tspan x="509.2" y="224" class="iris_mid">(()1</tspan><tspan x="534.8" y="224" class="iris_lit">1</tspan><tspan x="541.2" y="224" class="iris_outer">:,</tspan><tspan x="554.0" y="224" class="sclera_lit">rrrrrrrrrrrrrrrj1</tspan><tspan x="662.8" y="224" class="sclera_mid">)(li!</tspan><tspan x="694.8" y="224" class="sclera_dim">:,`.</tspan><tspan x="720.4" y="224" class="corner_dark">.........</tspan><tspan x="10.0" y="236" class="corner_dark">..........</tspan><tspan x="74.0" y="236" class="sclera_dim">.`,:</tspan><tspan x="99.6" y="236" class="sclera_mid">!il()</tspan><tspan x="131.6" y="236" class="sclera_lit">1jrrrrrrrrrrrrrr</tspan><tspan x="234.0" y="236" class="iris_outer">,,</tspan><tspan x="246.8" y="236" class="iris_mid">))1111))(()</tspan><tspan x="317.2" y="236" class="iris_lit">j</tspan><tspan x="323.6" y="236" class="iris_bright">fCL</tspan><tspan x="342.8" y="236" class="catchlight">@@@@@@@@@</tspan><tspan x="400.4" y="236" class="pupil">......</tspan><tspan x="438.8" y="236" class="iris_outer">..</tspan><tspan x="451.6" y="236" class="iris_lit">/j</tspan><tspan x="464.4" y="236" class="iris_bright">fCf</tspan><tspan x="483.6" y="236" class="iris_lit">t</tspan><tspan x="490.0" y="236" class="iris_mid">))</tspan><tspan x="502.8" y="236" class="iris_lit">tjt</tspan><tspan x="522.0" y="236" class="iris_mid">)I</tspan><tspan x="534.8" y="236" class="iris_dark">i!</tspan><tspan x="547.6" y="236" class="iris_outer">'`</tspan><tspan x="560.4" y="236" class="sclera_lit">rrrrrrrrrrrrrrj1</tspan><tspan x="662.8" y="236" class="sclera_mid">)(li!</tspan><tspan x="694.8" y="236" class="sclera_dim">:,`.</tspan><tspan x="720.4" y="236" class="corner_dark">.........</tspan><tspan x="10.0" y="248" class="corner_dark">..........</tspan><tspan x="74.0" y="248" class="sclera_dim">.`,:</tspan><tspan x="99.6" y="248" class="sclera_mid">!il()</tspan><tspan x="131.6" y="248" class="sclera_lit">1jrrrrrrrrrrrrrr</tspan><tspan x="234.0" y="248" class="iris_outer">``</tspan><tspan x="246.8" y="248" class="iris_dark">ii</tspan><tspan x="259.6" y="248" class="iris_mid">lllII()1</tspan><tspan x="310.8" y="248" class="iris_lit">tr//</tspan><tspan x="336.4" y="248" class="iris_outer">.</tspan><tspan x="342.8" y="248" class="catchlight">@@@@@@@@@</tspan><tspan x="400.4" y="248" class="pupil">.......</tspan><tspan x="445.2" y="248" class="iris_outer">..</tspan><tspan x="458.0" y="248" class="iris_lit">r1trrt</tspan><tspan x="496.4" y="248" class="iris_mid">)IllI(1</tspan><tspan x="541.2" y="248" class="iris_lit">t</tspan><tspan x="547.6" y="248" class="iris_dark">::</tspan><tspan x="560.4" y="248" class="sclera_lit">rrrrrrrrrrrrrrj1</tspan><tspan x="662.8" y="248" class="sclera_mid">)(li!</tspan><tspan x="694.8" y="248" class="sclera_dim">:,`.</tspan><tspan x="720.4" y="248" class="corner_dark">.........</tspan><tspan x="10.0" y="260" class="corner_dark">..........</tspan><tspan x="74.0" y="260" class="sclera_dim">.`,:</tspan><tspan x="99.6" y="260" class="sclera_mid">!il()</tspan><tspan x="131.6" y="260" class="sclera_lit">1jrrrrrrrrrrrrrr</tspan><tspan x="234.0" y="260" class="iris_dark">::</tspan><tspan x="246.8" y="260" class="iris_lit">jr//</tspan><tspan x="272.4" y="260" class="iris_bright">ffxxxLLLLL</tspan><tspan x="336.4" y="260" class="iris_outer">.</tspan><tspan x="342.8" y="260" class="pupil">.</tspan><tspan x="349.2" y="260" class="catchlight">@@@@@@@</tspan><tspan x="394.0" y="260" class="pupil">.........</tspan><tspan x="451.6" y="260" class="iris_outer">.</tspan><tspan x="458.0" y="260" class="iris_lit">1</tspan><tspan x="464.4" y="260" class="iris_mid">)()</tspan><tspan x="483.6" y="260" class="iris_lit">tj////rj1</tspan><tspan x="541.2" y="260" class="iris_mid">)</tspan><tspan x="547.6" y="260" class="iris_outer">,,</tspan><tspan x="560.4" y="260" class="sclera_lit">rrrrrrrrrrrrrrj1</tspan><tspan x="662.8" y="260" class="sclera_mid">)(li!</tspan><tspan x="694.8" y="260" class="sclera_dim">:,`.</tspan><tspan x="720.4" y="260" class="corner_dark">.........</tspan><tspan x="10.0" y="272" class="corner_dark">..........</tspan><tspan x="74.0" y="272" class="sclera_dim">.`,:</tspan><tspan x="99.6" y="272" class="sclera_mid">!il()</tspan><tspan x="131.6" y="272" class="sclera_lit">1jrrrrrrrrrrrrrr</tspan><tspan x="234.0" y="272" class="iris_dark">::</tspan><tspan x="246.8" y="272" class="iris_mid">1)))1</tspan><tspan x="278.8" y="272" class="iris_lit">1tjr</tspan><tspan x="304.4" y="272" class="iris_bright">fxLLC</tspan><tspan x="336.4" y="272" class="iris_outer">.</tspan><tspan x="342.8" y="272" class="pupil">.................</tspan><tspan x="451.6" y="272" class="iris_outer">.</tspan><tspan x="458.0" y="272" class="iris_lit">/rrjjttttttjjj</tspan><tspan x="547.6" y="272" class="iris_dark">;;</tspan><tspan x="560.4" y="272" class="sclera_lit">rrrrrrrrrrrrrrj1</tspan><tspan x="662.8" y="272" class="sclera_mid">)(li!</tspan><tspan x="694.8" y="272" class="sclera_dim">:,`.</tspan><tspan x="720.4" y="272" class="corner_dark">.........</tspan><tspan x="10.0" y="284" class="corner_dark">..........</tspan><tspan x="74.0" y="284" class="sclera_dim">.`,:</tspan><tspan x="99.6" y="284" class="sclera_mid">!il()</tspan><tspan x="131.6" y="284" class="sclera_lit">1jrrrrrrrrrrrrrr</tspan><tspan x="234.0" y="284" class="iris_outer">,:</tspan><tspan x="246.8" y="284" class="iris_lit">tjrrrj1</tspan><tspan x="291.6" y="284" class="iris_mid">)(I(</tspan><tspan x="317.2" y="284" class="iris_lit">tr</tspan><tspan x="330.0" y="284" class="iris_bright">f</tspan><tspan x="336.4" y="284" class="iris_outer">.</tspan><tspan x="342.8" y="284" class="pupil">.................</tspan><tspan x="451.6" y="284" class="iris_outer">.</tspan><tspan x="458.0" y="284" class="iris_mid">1</tspan><tspan x="464.4" y="284" class="iris_lit">tjjjjjjjtt1</tspan><tspan x="534.8" y="284" class="iris_mid">))</tspan><tspan x="547.6" y="284" class="iris_outer">,,</tspan><tspan x="560.4" y="284" class="sclera_lit">rrrrrrrrrrrrrrj1</tspan><tspan x="662.8" y="284" class="sclera_mid">)(li!</tspan><tspan x="694.8" y="284" class="sclera_dim">:,`.</tspan><tspan x="720.4" y="284" class="corner_dark">.........</tspan><tspan x="10.0" y="296" class="corner_dark">..........</tspan><tspan x="74.0" y="296" class="sclera_dim">.`,:</tspan><tspan x="99.6" y="296" class="sclera_mid">!il()</tspan><tspan x="131.6" y="296" class="sclera_lit">1jrrrrrrrrrrrrrr</tspan><tspan x="234.0" y="296" class="iris_dark">:</tspan><tspan x="240.4" y="296" class="iris_outer">:</tspan><tspan x="246.8" y="296" class="iris_mid">(l</tspan><tspan x="259.6" y="296" class="iris_dark">ii</tspan><tspan x="272.4" y="296" class="iris_mid">l(</tspan><tspan x="285.2" y="296" class="iris_lit">1jrt</tspan><tspan x="310.8" y="296" class="iris_mid">1</tspan><tspan x="317.2" y="296" class="iris_lit">1/</tspan><tspan x="330.0" y="296" class="iris_bright">CL</tspan><tspan x="342.8" y="296" class="iris_outer">.</tspan><tspan x="349.2" y="296" class="pupil">...............</tspan><tspan x="445.2" y="296" class="iris_outer">.</tspan><tspan x="451.6" y="296" class="iris_lit">t1trrrjt1</tspan><tspan x="509.2" y="296" class="iris_mid">))((II</tspan><tspan x="547.6" y="296" class="iris_outer">``</tspan><tspan x="560.4" y="296" class="sclera_lit">rrrrrrrrrrrrrrj1</tspan><tspan x="662.8" y="296" class="sclera_mid">)(li!</tspan><tspan x="694.8" y="296" class="sclera_dim">:,`.</tspan><tspan x="720.4" y="296" class="corner_dark">.........</tspan><tspan x="10.0" y="308" class="corner_dark">..........</tspan><tspan x="74.0" y="308" class="sclera_dim">.`,:</tspan><tspan x="99.6" y="308" class="sclera_mid">!il()</tspan><tspan x="131.6" y="308" class="sclera_lit">1jrrrrrrrrrrrrrr</tspan><tspan x="234.0" y="308" class="iris_outer">''`</tspan><tspan x="253.2" y="308" class="iris_mid">I)</tspan><tspan x="266.0" y="308" class="iris_lit">tt</tspan><tspan x="278.8" y="308" class="iris_mid">1))</tspan><tspan x="298.0" y="308" class="iris_lit">t</tspan><tspan x="304.4" y="308" class="iris_bright">fLf</tspan><tspan x="323.6" y="308" class="iris_lit">tr</tspan><tspan x="336.4" y="308" class="iris_bright">f</tspan><tspan x="342.8" y="308" class="iris_mid">1</tspan><tspan x="349.2" y="308" class="iris_outer">..</tspan><tspan x="362.0" y="308" class="pupil">...........</tspan><tspan x="432.4" y="308" class="iris_outer">..</tspan><tspan x="445.2" y="308" class="iris_lit">/j</tspan><tspan x="458.0" y="308" class="iris_bright">fCL</tspan><tspan x="477.2" y="308" class="iris_lit">/t</tspan><tspan x="490.0" y="308" class="iris_mid">)(IIIIII</tspan><tspan x="541.2" y="308" class="iris_outer">,,,</tspan><tspan x="560.4" y="308" class="sclera_lit">rrrrrrrrrrrrrrj1</tspan><tspan x="662.8" y="308" class="sclera_mid">)(li!</tspan><tspan x="694.8" y="308" class="sclera_dim">:,`.</tspan><tspan x="720.4" y="308" class="corner_dark">.........</tspan><tspan x="16.4" y="320" class="corner_dark">.........</tspan><tspan x="74.0" y="320" class="sclera_dim">.`,:</tspan><tspan x="99.6" y="320" class="sclera_mid">!il()</tspan><tspan x="131.6" y="320" class="sclera_lit">1jrrrrrrrrrrrrrrr</tspan><tspan x="240.4" y="320" class="iris_outer">,:</tspan><tspan x="253.2" y="320" class="iris_mid">)(I(</tspan><tspan x="278.8" y="320" class="iris_lit">t/</tspan><tspan x="291.6" y="320" class="iris_bright">x</tspan><tspan x="298.0" y="320" class="iris_lit">/t1rr</tspan><tspan x="330.0" y="320" class="iris_mid">))</tspan><tspan x="342.8" y="320" class="iris_bright">f</tspan><tspan x="349.2" y="320" class="iris_lit">r</tspan><tspan x="355.6" y="320" class="iris_bright">xL</tspan><tspan x="368.4" y="320" class="iris_outer">.........</tspan><tspan x="426.0" y="320" class="iris_lit">r</tspan><tspan x="432.4" y="320" class="iris_bright">f</tspan><tspan x="438.8" y="320" class="iris_lit">j</tspan><tspan x="445.2" y="320" class="iris_mid">(</tspan><tspan x="451.6" y="320" class="iris_lit">j</tspan><tspan x="458.0" y="320" class="iris_bright">f</tspan><tspan x="464.4" y="320" class="iris_lit">rttr</tspan><tspan x="490.0" y="320" class="iris_bright">fxf</tspan><tspan x="509.2" y="320" class="iris_lit">/rt</tspan><tspan x="528.4" y="320" class="iris_mid">)(</tspan><tspan x="541.2" y="320" class="iris_outer">,`</tspan><tspan x="554.0" y="320" class="sclera_lit">rrrrrrrrrrrrrrrj1</tspan><tspan x="662.8" y="320" class="sclera_mid">)(li!</tspan><tspan x="694.8" y="320" class="sclera_dim">:,`.</tspan><tspan x="720.4" y="320" class="corner_dark">.........</tspan><tspan x="22.8" y="332" class="corner_dark">.........</tspan><tspan x="80.4" y="332" class="sclera_dim">',:</tspan><tspan x="99.6" y="332" class="sclera_mid">!il()</tspan><tspan x="131.6" y="332" class="sclera_lit">1jrrrrrrrrrrrrrrrr</tspan><tspan x="246.8" y="332" class="iris_outer">`,</tspan><tspan x="259.6" y="332" class="iris_mid">)</tspan><tspan x="266.0" y="332" class="iris_lit">j</tspan><tspan x="272.4" y="332" class="iris_bright">f</tspan><tspan x="278.8" y="332" class="iris_lit">/j</tspan><tspan x="291.6" y="332" class="iris_mid">))</tspan><tspan x="304.4" y="332" class="iris_lit">jj</tspan><tspan x="317.2" y="332" class="iris_mid">(I</tspan><tspan x="330.0" y="332" class="iris_lit">j</tspan><tspan x="336.4" y="332" class="iris_bright">f</tspan><tspan x="342.8" y="332" class="iris_lit">t</tspan><tspan x="349.2" y="332" class="iris_bright">xx</tspan><tspan x="362.0" y="332" class="iris_mid">1</tspan><tspan x="368.4" y="332" class="iris_lit">/</tspan><tspan x="374.8" y="332" class="iris_mid">)</tspan><tspan x="381.2" y="332" class="iris_bright">ffx</tspan><tspan x="400.4" y="332" class="iris_lit">r1/t</tspan><tspan x="426.0" y="332" class="iris_bright">C</tspan><tspan x="432.4" y="332" class="iris_lit">/t/j</tspan><tspan x="458.0" y="332" class="iris_mid">I(</tspan><tspan x="470.8" y="332" class="iris_lit">t/rt</tspan><tspan x="496.4" y="332" class="iris_mid">1))</tspan><tspan x="515.6" y="332" class="iris_lit">1tj</tspan><tspan x="534.8" y="332" class="iris_dark">;;</tspan><tspan x="547.6" y="332" class="sclera_lit">rrrrrrrrrrrrrrrrj1</tspan><tspan x="662.8" y="332" class="sclera_mid">)(li!</tspan><tspan x="694.8" y="332" class="sclera_dim">:,'</tspan><tspan x="714.0" y="332" class="corner_dark">.........</tspan><tspan x="35.6" y="344" class="corner_dark">.......</tspan><tspan x="80.4" y="344" class="sclera_dim">'`,</tspan><tspan x="99.6" y="344" class="sclera_mid">;il()</tspan><tspan x="131.6" y="344" class="sclera_lit">1jrrrrrrrrrrrrrrrrr</tspan><tspan x="253.2" y="344" class="iris_dark">;;</tspan><tspan x="266.0" y="344" class="iris_lit">r</tspan><tspan x="272.4" y="344" class="iris_mid">1((</tspan><tspan x="291.6" y="344" class="iris_lit">tj</tspan><tspan x="304.4" y="344" class="iris_mid">)</tspan><tspan x="310.8" y="344" class="iris_dark">i</tspan><tspan x="317.2" y="344" class="iris_mid">(</tspan><tspan x="323.6" y="344" class="iris_lit">rrt</tspan><tspan x="342.8" y="344" class="iris_bright">fx</tspan><tspan x="355.6" y="344" class="iris_mid">1</tspan><tspan x="362.0" y="344" class="iris_lit">tj</tspan><tspan x="374.8" y="344" class="iris_mid">(</tspan><tspan x="381.2" y="344" class="iris_bright">x</tspan><tspan x="387.6" y="344" class="iris_lit">//</tspan><tspan x="400.4" y="344" class="iris_bright">f</tspan><tspan x="406.8" y="344" class="iris_mid">(</tspan><tspan x="413.2" y="344" class="iris_lit">jj</tspan><tspan x="426.0" y="344" class="iris_mid">1</tspan><tspan x="432.4" y="344" class="iris_bright">xx</tspan><tspan x="445.2" y="344" class="iris_lit">ttrj</tspan><tspan x="470.8" y="344" class="iris_mid">(</tspan><tspan x="477.2" y="344" class="iris_dark">i</tspan><tspan x="483.6" y="344" class="iris_mid">l)</tspan><tspan x="496.4" y="344" class="iris_lit">jrjt</tspan><tspan x="522.0" y="344" class="iris_mid">)</tspan><tspan x="528.4" y="344" class="iris_outer">,,</tspan><tspan x="541.2" y="344" class="sclera_lit">rrrrrrrrrrrrrrrrrj1</tspan><tspan x="662.8" y="344" class="sclera_mid">)(li;</tspan><tspan x="694.8" y="344" class="sclera_dim">,`'</tspan><tspan x="714.0" y="344" class="corner_dark">.......</tspan><tspan x="48.4" y="356" class="corner_dark">......</tspan><tspan x="86.8" y="356" class="sclera_dim">'`,</tspan><tspan x="106.0" y="356" class="sclera_mid">;iI)</tspan><tspan x="131.6" y="356" class="sclera_lit">1jrrrrrrrrrrrrrrrrrr</tspan><tspan x="259.6" y="356" class="iris_outer">,`,</tspan><tspan x="278.8" y="356" class="iris_mid">)</tspan><tspan x="285.2" y="356" class="iris_lit">t</tspan><tspan x="291.6" y="356" class="iris_mid">)l</tspan><tspan x="304.4" y="356" class="iris_dark">i</tspan><tspan x="310.8" y="356" class="iris_mid">)</tspan><tspan x="317.2" y="356" class="iris_lit">rj</tspan><tspan x="330.0" y="356" class="iris_mid">1</tspan><tspan x="336.4" y="356" class="iris_lit">r</tspan><tspan x="342.8" y="356" class="iris_bright">x</tspan><tspan x="349.2" y="356" class="iris_lit">t</tspan><tspan x="355.6" y="356" class="iris_mid">(</tspan><tspan x="362.0" y="356" class="iris_lit">j</tspan><tspan x="368.4" y="356" class="iris_mid">)(</tspan><tspan x="381.2" y="356" class="iris_bright">f</tspan><tspan x="387.6" y="356" class="iris_lit">/j</tspan><tspan x="400.4" y="356" class="iris_bright">x</tspan><tspan x="406.8" y="356" class="iris_lit">t</tspan><tspan x="413.2" y="356" class="iris_mid">I</tspan><tspan x="419.6" y="356" class="iris_lit">jt</tspan><tspan x="432.4" y="356" class="iris_mid">)</tspan><tspan x="438.8" y="356" class="iris_lit">r</tspan><tspan x="445.2" y="356" class="iris_bright">L</tspan><tspan x="451.6" y="356" class="iris_lit">r</tspan><tspan x="458.0" y="356" class="iris_mid">))</tspan><tspan x="470.8" y="356" class="iris_lit">tj</tspan><tspan x="483.6" y="356" class="iris_mid">)l</tspan><tspan x="496.4" y="356" class="iris_dark">!i</tspan><tspan x="509.2" y="356" class="iris_mid">l</tspan><tspan x="515.6" y="356" class="iris_outer">,</tspan><tspan x="522.0" y="356" class="iris_dark">::</tspan><tspan x="534.8" y="356" class="sclera_lit">rrrrrrrrrrrrrrrrrrj1</tspan><tspan x="662.8" y="356" class="sclera_mid">)Ii;</tspan><tspan x="688.4" y="356" class="sclera_dim">,`'</tspan><tspan x="707.6" y="356" class="corner_dark">......</tspan><tspan x="67.6" y="368" class="corner_dark">....</tspan><tspan x="93.2" y="368" class="sclera_dim">'`,:</tspan><tspan x="118.8" y="368" class="sclera_mid">!l(</tspan><tspan x="138.0" y="368" class="sclera_lit">1jrrrrrrrrrrrrrrrrrrr</tspan><tspan x="272.4" y="368" class="iris_outer">::`</tspan><tspan x="291.6" y="368" class="iris_dark">!i</tspan><tspan x="304.4" y="368" class="iris_mid">)</tspan><tspan x="310.8" y="368" class="iris_lit">jt</tspan><tspan x="323.6" y="368" class="iris_mid">)</tspan><tspan x="330.0" y="368" class="iris_lit">j</tspan><tspan x="336.4" y="368" class="iris_bright">f</tspan><tspan x="342.8" y="368" class="iris_lit">j</tspan><tspan x="349.2" y="368" class="iris_mid">I)</tspan><tspan x="362.0" y="368" class="iris_lit">t</tspan><tspan x="368.4" y="368" class="iris_mid">((</tspan><tspan x="381.2" y="368" class="iris_bright">f</tspan><tspan x="387.6" y="368" class="iris_lit">/t/r</tspan><tspan x="413.2" y="368" class="iris_mid">II</tspan><tspan x="426.0" y="368" class="iris_lit">tt</tspan><tspan x="438.8" y="368" class="iris_mid">(</tspan><tspan x="445.2" y="368" class="iris_lit">1</tspan><tspan x="451.6" y="368" class="iris_bright">ff</tspan><tspan x="464.4" y="368" class="iris_lit">t</tspan><tspan x="470.8" y="368" class="iris_mid">(()</tspan><tspan x="490.0" y="368" class="iris_lit">1</tspan><tspan x="496.4" y="368" class="iris_mid">1</tspan><tspan x="502.8" y="368" class="iris_outer">,`'</tspan><tspan x="522.0" y="368" class="sclera_lit">rrrrrrrrrrrrrrrrrrrj1</tspan><tspan x="656.4" y="368" class="sclera_mid">(l!</tspan><tspan x="675.6" y="368" class="sclera_dim">:,`'</tspan><tspan x="701.2" y="368" class="corner_dark">....</tspan><tspan x="86.8" y="380" class="corner_dark">...</tspan><tspan x="106.0" y="380" class="sclera_dim">'`,:</tspan><tspan x="131.6" y="380" class="sclera_mid">!lI)</tspan><tspan x="157.2" y="380" class="sclera_lit">1tjrrrrrrrrrrrrrrrrr</tspan><tspan x="285.2" y="380" class="iris_outer">'`:</tspan><tspan x="304.4" y="380" class="iris_lit">j1</tspan><tspan x="317.2" y="380" class="iris_mid">(</tspan><tspan x="323.6" y="380" class="iris_lit">1/r</tspan><tspan x="342.8" y="380" class="iris_mid">(l1</tspan><tspan x="362.0" y="380" class="iris_lit">1</tspan><tspan x="368.4" y="380" class="iris_mid">l(</tspan><tspan x="381.2" y="380" class="iris_lit">//1t/1</tspan><tspan x="419.6" y="380" class="iris_dark">i</tspan><tspan x="426.0" y="380" class="iris_mid">I</tspan><tspan x="432.4" y="380" class="iris_lit">tt</tspan><tspan x="445.2" y="380" class="iris_mid">((</tspan><tspan x="458.0" y="380" class="iris_lit">j//1</tspan><tspan x="483.6" y="380" class="iris_mid">I</tspan><tspan x="490.0" y="380" class="iris_outer">`,,</tspan><tspan x="509.2" y="380" class="sclera_lit">rrrrrrrrrrrrrrrrrjt1</tspan><tspan x="637.2" y="380" class="sclera_mid">)Il!</tspan><tspan x="662.8" y="380" class="sclera_dim">:,`'</tspan><tspan x="688.4" y="380" class="corner_dark">...</tspan><tspan x="112.4" y="392" class="corner_dark">..</tspan><tspan x="125.2" y="392" class="sclera_dim">'`,</tspan><tspan x="144.4" y="392" class="sclera_mid">;!ilI()</tspan><tspan x="189.2" y="392" class="sclera_lit">)1tjrrrrrrrrrrrrrr</tspan><tspan x="304.4" y="392" class="iris_dark">:</tspan><tspan x="310.8" y="392" class="iris_outer">,,</tspan><tspan x="323.6" y="392" class="iris_dark">;</tspan><tspan x="330.0" y="392" class="iris_lit">r1</tspan><tspan x="342.8" y="392" class="iris_mid">ll))lI</tspan><tspan x="381.2" y="392" class="iris_lit">j/1</tspan><tspan x="400.4" y="392" class="iris_mid">)</tspan><tspan x="406.8" y="392" class="iris_lit">jj</tspan><tspan x="419.6" y="392" class="iris_mid">(</tspan><tspan x="426.0" y="392" class="iris_dark">!</tspan><tspan x="432.4" y="392" class="iris_mid">l1</tspan><tspan x="445.2" y="392" class="iris_lit">1</tspan><tspan x="451.6" y="392" class="iris_mid">(I</tspan><tspan x="464.4" y="392" class="iris_outer">,</tspan><tspan x="470.8" y="392" class="iris_dark">;;;</tspan><tspan x="490.0" y="392" class="sclera_lit">rrrrrrrrrrrrrrjt1)</tspan><tspan x="605.2" y="392" class="sclera_mid">)(Ili!;</tspan><tspan x="650.0" y="392" class="sclera_dim">,`'</tspan><tspan x="669.2" y="392" class="corner_dark">..</tspan><tspan x="144.4" y="404" class="corner_dark">.</tspan><tspan x="150.8" y="404" class="sclera_dim">.'`,:</tspan><tspan x="182.8" y="404" class="sclera_mid">;!ilII()</tspan><tspan x="234.0" y="404" class="sclera_lit">11tjjrrrrrrrrr</tspan><tspan x="323.6" y="404" class="iris_dark">;;</tspan><tspan x="336.4" y="404" class="iris_outer">,``,,</tspan><tspan x="368.4" y="404" class="iris_dark">i</tspan><tspan x="374.8" y="404" class="iris_mid">l</tspan><tspan x="381.2" y="404" class="iris_lit">t/t</tspan><tspan x="400.4" y="404" class="iris_mid">()</tspan><tspan x="413.2" y="404" class="iris_lit">jt</tspan><tspan x="426.0" y="404" class="iris_outer">`'`,:,`</tspan><tspan x="470.8" y="404" class="sclera_lit">rrrrrrrrrjjt11</tspan><tspan x="560.4" y="404" class="sclera_mid">)(IIli!;</tspan><tspan x="611.6" y="404" class="sclera_dim">:,`'.</tspan><tspan x="643.6" y="404" class="corner_dark">.</tspan><tspan x="176.4" y="416" class="corner_dark">..</tspan><tspan x="189.2" y="416" class="sclera_dim">.'`,::</tspan><tspan x="227.6" y="416" class="sclera_mid">;!iillII(()</tspan><tspan x="298.0" y="416" class="sclera_lit">)111tttjjjj</tspan><tspan x="368.4" y="416" class="iris_outer">``,</tspan><tspan x="387.6" y="416" class="iris_dark">;;</tspan><tspan x="400.4" y="416" class="iris_outer">,,:</tspan><tspan x="419.6" y="416" class="iris_dark">:</tspan><tspan x="426.0" y="416" class="sclera_lit">jjjjttt111)</tspan><tspan x="496.4" y="416" class="sclera_mid">)((IIllii!;</tspan><tspan x="566.8" y="416" class="sclera_dim">::,`'.</tspan><tspan x="605.2" y="416" class="corner_dark">..</tspan><tspan x="227.6" y="428" class="corner_dark">..</tspan><tspan x="240.4" y="428" class="sclera_dim">.'``,,::</tspan><tspan x="291.6" y="428" class="sclera_mid">;;!!!iiiillllllllllllllliiii!!!;;</tspan><tspan x="502.8" y="428" class="sclera_dim">::,,``'.</tspan><tspan x="554.0" y="428" class="corner_dark">..</tspan><tspan x="304.4" y="440" class="corner_dark">....</tspan><tspan x="330.0" y="440" class="sclera_dim">..'''''''```'''''''..</tspan><tspan x="464.4" y="440" class="corner_dark">....</tspan></text></g>
</svg>