<svg xmlns="http://www.w3.org/2000/svg" class="artemis-avatar" viewBox="0 0 788 510" preserveAspectRatio="xMidYMid meet" style="display:block;width:100%;height:auto;max-width:100%;">
<style>svg.artemis-avatar { --avatar-speed: 2s; overflow: visible; }svg.artemis-avatar .flame_core{fill:#fff8e0;}.flame_hot{fill:#ffd060;}.flame_mid{fill:#ff8030;}.flame_low{fill:#e04020;}.flame_outer{fill:#a02018;}.flame_dim{fill:#601018;}.flame_smoke{fill:#3a1820;}.eye_dark{fill:#2a0810;}.eye_white{fill:#fff8e0;}.eye_sparkle{fill:#ffffd0;}.blush{fill:#ff80a0;}.blush_lit{fill:#ffa8c0;}.mouth{fill:#4a1a28;}@media (prefers-color-scheme: dark){.flame_core{fill:#ffffff;}.flame_hot{fill:#ffe88a;}.flame_mid{fill:#ffa050;}.flame_low{fill:#d04830;}.flame_outer{fill:#80281a;}.flame_dim{fill:#481018;}.flame_smoke{fill:#281020;}.eye_dark{fill:#1a0410;}.eye_white{fill:#ffffff;}.eye_sparkle{fill:#ffffff;}.blush{fill:#ffa0c0;}.blush_lit{fill:#ffd0e0;}.mouth{fill:#3a1020;}}</style>
<g class="frame"><text font-family="ui-monospace,Menlo,Consolas,Monaco,&quot;Courier New&quot;,monospace" font-size="11" xml:space="preserve"><tspan x="323.6" y="20" class="flame_smoke">..''`</tspan><tspan x="355.6" y="20" class="flame_dim">`</tspan><tspan x="362.0" y="20" class="flame_outer">:!i</tspan><tspan x="381.2" y="20" class="flame_low">lIl</tspan><tspan x="400.4" y="20" class="flame_outer">i!;</tspan><tspan x="419.6" y="20" class="flame_dim">,</tspan><tspan x="426.0" y="20" class="flame_smoke">'..</tspan><tspan x="304.4" y="32" class="flame_smoke">..''</tspan><tspan x="330.0" y="32" class="flame_outer">:;!!ii</tspan><tspan x="368.4" y="32" class="flame_low">llIIIIIIll</tspan><tspan x="432.4" y="32" class="flame_outer">i!;:</tspan><tspan x="291.6" y="44" class="flame_smoke">.'</tspan><tspan x="304.4" y="44" class="flame_outer">:;;!!ii</tspan><tspan x="349.2" y="44" class="flame_low">lllIII(((((((IIl</tspan><tspan x="451.6" y="44" class="flame_outer">i!;:</tspan><tspan x="477.2" y="44" class="flame_dim">,</tspan><tspan x="278.8" y="56" class="flame_smoke">.'</tspan><tspan x="291.6" y="56" class="flame_outer">;!!iii</tspan><tspan x="330.0" y="56" class="flame_low">llllIII((())))))((Ill</tspan><tspan x="464.4" y="56" class="flame_outer">i!;;</tspan><tspan x="490.0" y="56" class="flame_dim">:,</tspan><tspan x="266.0" y="68" class="flame_smoke">.</tspan><tspan x="272.4" y="68" class="flame_outer">;;!!ii</tspan><tspan x="310.8" y="68" class="flame_low">lllllIIII(())11111))((IIl</tspan><tspan x="470.8" y="68" class="flame_outer">ii!;;;::</tspan><tspan x="522.0" y="68" class="flame_smoke">'.......</tspan><tspan x="253.2" y="80" class="flame_smoke">.'</tspan><tspan x="266.0" y="80" class="flame_outer">;!ii</tspan><tspan x="291.6" y="80" class="flame_low">llllllIIII(()))1</tspan><tspan x="394.0" y="80" class="flame_mid">11111</tspan><tspan x="426.0" y="80" class="flame_low">1))((IIll</tspan><tspan x="483.6" y="80" class="flame_outer">iii!!!!;;</tspan><tspan x="541.2" y="80" class="flame_smoke">'''''..</tspan><tspan x="240.4" y="92" class="flame_smoke">..</tspan><tspan x="253.2" y="92" class="flame_mid">tjr/f</tspan><tspan x="285.2" y="92" class="flame_hot">fxxxLLLCCGG</tspan><tspan x="355.6" y="92" class="flame_core">OQ0%#$$@@$$#%0Q</tspan><tspan x="451.6" y="92" class="flame_hot">OGCLxxxf</tspan><tspan x="502.8" y="92" class="flame_mid">ff//rrjt</tspan><tspan x="554.0" y="92" class="flame_smoke">```'''.</tspan><tspan x="234.0" y="104" class="flame_smoke">.</tspan><tspan x="240.4" y="104" class="flame_mid">tjr/f</tspan><tspan x="272.4" y="104" class="flame_hot">xxLLLLLCCGG</tspan><tspan x="342.8" y="104" class="flame_core">OQ0%#$$@@@@@$#%0QQ</tspan><tspan x="458.0" y="104" class="flame_hot">OGGCCCCLLLxx</tspan><tspan x="534.8" y="104" class="flame_mid">f/rj1</tspan><tspan x="566.8" y="104" class="flame_smoke">```''.</tspan><tspan x="221.2" y="116" class="flame_smoke">..</tspan><tspan x="234.0" y="116" class="flame_mid">jr/f</tspan><tspan x="259.6" y="116" class="flame_hot">xxLLLLCCCCGO</tspan><tspan x="336.4" y="116" class="flame_core">OQ0%#$@@@@@@@$$#%0QQOOOO</tspan><tspan x="490.0" y="116" class="flame_hot">OOOGGCCLx</tspan><tspan x="547.6" y="116" class="flame_mid">/rj1</tspan><tspan x="573.2" y="116" class="flame_smoke">,``'..</tspan><tspan x="214.8" y="128" class="flame_smoke">..</tspan><tspan x="227.6" y="128" class="flame_mid">r/f</tspan><tspan x="246.8" y="128" class="flame_hot">xxLLCCCCCCGG</tspan><tspan x="323.6" y="128" class="flame_core">OQ0%#$@@@@@@@@@@$#%%00000000QQQ</tspan><tspan x="522.0" y="128" class="flame_hot">OGCLf</tspan><tspan x="554.0" y="128" class="flame_mid">/rjt</tspan><tspan x="579.6" y="128" class="flame_low">1</tspan><tspan x="586.0" y="128" class="flame_smoke">`''.</tspan><tspan x="208.4" y="140" class="flame_smoke">.''</tspan><tspan x="227.6" y="140" class="flame_mid">/</tspan><tspan x="234.0" y="140" class="flame_hot">fxLLCCCCCGGG</tspan><tspan x="310.8" y="140" class="flame_core">OQQ0%#$@@@@@@@@@@@$$###%%###%%%00Q</tspan><tspan x="528.4" y="140" class="flame_hot">OGLx</tspan><tspan x="554.0" y="140" class="flame_mid">f/rjtt</tspan><tspan x="592.4" y="140" class="flame_smoke">''.</tspan><tspan x="202.0" y="152" class="flame_smoke">.''</tspan><tspan x="221.2" y="152" class="flame_mid">f</tspan><tspan x="227.6" y="152" class="flame_hot">xLLCCCCCGGGO</tspan><tspan x="304.4" y="152" class="flame_core">OQ0%#$@@@@@@@@@@@@@@$$$$$$$$$$$#%0QO</tspan><tspan x="534.8" y="152" class="flame_hot">GCLx</tspan><tspan x="560.4" y="152" class="flame_mid">f/rrr</tspan><tspan x="592.4" y="152" class="flame_smoke">''.</tspan><tspan x="195.6" y="164" class="flame_smoke">..'</tspan><tspan x="214.8" y="164" class="flame_hot">fxLCCCCGGGGO</tspan><tspan x="291.6" y="164" class="flame_core">OQ00%$@@@@@@@@@@@@@@@@@@@@@@@@@@@$#%0Q</tspan><tspan x="534.8" y="164" class="flame_hot">OCLLxf</tspan><tspan x="573.2" y="164" class="flame_mid">ff//</tspan><tspan x="598.8" y="164" class="flame_smoke">'.</tspan><tspan x="195.6" y="176" class="flame_smoke">.''</tspan><tspan x="214.8" y="176" class="flame_hot">LLCCCGGGGGO</tspan><tspan x="285.2" y="176" class="flame_core">OQ0%#$@@@@@@@@@@@@@@@@@@@@@@@@@@@@$#%0QO</tspan><tspan x="541.2" y="176" class="flame_hot">GCCLLxxxx</tspan><tspan x="598.8" y="176" class="flame_smoke">'.</tspan><tspan x="189.2" y="188" class="flame_smoke">..'`</tspan><tspan x="214.8" y="188" class="flame_hot">LCCGGGGGO</tspan><tspan x="272.4" y="188" class="flame_core">OQ00%#@@@@@@@@@@@@@@@@@@@@@@@@@@@@@@$#%0QO</tspan><tspan x="541.2" y="188" class="flame_hot">OGGCCCCLL</tspan><tspan x="598.8" y="188" class="flame_smoke">.</tspan><tspan x="189.2" y="200" class="flame_smoke">.''`</tspan><tspan x="214.8" y="200" class="flame_hot">CCGGGGGO</tspan><tspan x="266.0" y="200" class="flame_core">OQ0%#$@@@@@@@@@@@@@@@@@@@@@@@@@@@@@@@@#%00QOO</tspan><tspan x="554.0" y="200" class="flame_hot">OOGGGGC</tspan><tspan x="598.8" y="200" class="flame_smoke">.</tspan><tspan x="182.8" y="212" class="flame_smoke">..'``</tspan><tspan x="214.8" y="212" class="flame_hot">CGGGGG</tspan><tspan x="253.2" y="212" class="flame_core">OQQ0%#$@@@@@@@@@@@@@@@@@@@@@@@@@@@@@@@@@$#%00QQQQQOO</tspan><tspan x="586.0" y="212" class="flame_hot">OG</tspan><tspan x="182.8" y="224" class="flame_smoke">.''``</tspan><tspan x="214.8" y="224" class="flame_hot">CGGGG</tspan><tspan x="246.8" y="224" class="flame_core">OQQ0%$@@@@@@@@@@@@@@@@@@@@@@@@@@@@@@@@@@@$#%%%00000QQO</tspan><tspan x="182.8" y="236" class="flame_smoke">.''``</tspan><tspan x="214.8" y="236" class="flame_hot">CGGG</tspan><tspan x="240.4" y="236" class="flame_core">OQ0%#$@@@@@@@@@@</tspan><tspan x="342.8" y="236" class="eye_dark">....</tspan><tspan x="368.4" y="236" class="flame_core">@@@@@@@@@</tspan><tspan x="426.0" y="236" class="eye_dark">....</tspan><tspan x="451.6" y="236" class="flame_core">@@@@@@@@@$$####%%%%0Q</tspan><tspan x="176.4" y="248" class="flame_smoke">..''```</tspan><tspan x="221.2" y="248" class="flame_hot">GG</tspan><tspan x="234.0" y="248" class="flame_core">OQ0%#$@@@@@@@@@@@@@@@@@@@@@@@@@@@@</tspan><tspan x="451.6" y="248" class="eye_dark">.</tspan><tspan x="458.0" y="248" class="flame_core">@@@@@@@@@$$$$$###%0Q</tspan><tspan x="221.2" y="260" class="flame_hot">GO</tspan><tspan x="234.0" y="260" class="flame_core">Q0%#$@@@@@@</tspan><tspan x="304.4" y="260" class="blush">111</tspan><tspan x="323.6" y="260" class="flame_core">@@@@@@@@@@@@@@@@@@@@@@@</tspan><tspan x="470.8" y="260" class="blush">111</tspan><tspan x="490.0" y="260" class="flame_core">@@@@@@@@$$$#%0</tspan><tspan x="221.2" y="272" class="flame_hot">O</tspan><tspan x="227.6" y="272" class="flame_core">Q0%#$@@@@@@@</tspan><tspan x="304.4" y="272" class="blush">111</tspan><tspan x="323.6" y="272" class="flame_core">@@@@@@@@@@@@@@@@@@@@@@@</tspan><tspan x="470.8" y="272" class="blush">111</tspan><tspan x="490.0" y="272" class="flame_core">@@@@@@@@@@$#%</tspan><tspan x="227.6" y="284" class="flame_core">0%#$@@@@@@@@@@@@@@@@@@@@@@@@@@@@@@@@@@@@@@@@@@@@@@@$#</tspan><tspan x="227.6" y="296" class="flame_core">Q0#$@@@@@@@@@@@@@@@@@@@@@</tspan><tspan x="387.6" y="296" class="mouth">III</tspan><tspan x="406.8" y="296" class="flame_core">@@@@@@@@@@@@@@@@@@@@@$#%</tspan><tspan x="227.6" y="308" class="flame_core">O0%#@@@@@@@@@@@@@@@@@@@@@@@@@@@@@@@@@@@@@@@@@@@$#%0</tspan><tspan x="234.0" y="320" class="flame_core">Q0#$$@@@@@@@@@@@@@@@@@@@@@@@@@@@@@@@@@@@@@@@$##0Q</tspan><tspan x="234.0" y="332" class="flame_core">OQ0%##$$$$@@@@@@@@@@@@@@@@@@@@@@@@@@@@@@@@$$#%0O</tspan><tspan x="240.4" y="344" class="flame_core">OQ000%%%##$@@@@@@@@@@@@@@@@@@@@@@@@@@@@$$#%0Q</tspan><tspan x="528.4" y="344" class="flame_hot">G</tspan><tspan x="246.8" y="356" class="flame_hot">GO</tspan><tspan x="259.6" y="356" class="flame_core">OOQQ00%#$@@@@@@@@@@@@@@@@@@@@@@@@@$$#%0Q</tspan><tspan x="515.6" y="356" class="flame_hot">OC</tspan><tspan x="253.2" y="368" class="flame_hot">LCCGO</tspan><tspan x="285.2" y="368" class="flame_core">OQ0%$@@@@@@@@@@@@@@@@@@@@@@$$$##%0O</tspan><tspan x="509.2" y="368" class="flame_hot">GC</tspan><tspan x="253.2" y="380" class="flame_mid">f</tspan><tspan x="259.6" y="380" class="flame_hot">xxLCG</tspan><tspan x="291.6" y="380" class="flame_core">OQ%#$@@@@@@@@@@@@@@@@@@@$$$##%0Q</tspan><tspan x="496.4" y="380" class="flame_hot">OCL</tspan><tspan x="259.6" y="392" class="flame_mid">r/</tspan><tspan x="272.4" y="392" class="flame_hot">fxCG</tspan><tspan x="298.0" y="392" class="flame_core">O0%$@@@@@@@@@@@@@@@@@$$$##%%0O</tspan><tspan x="490.0" y="392" class="flame_hot">GLx</tspan><tspan x="272.4" y="404" class="flame_mid">rf</tspan><tspan x="285.2" y="404" class="flame_hot">xCG</tspan><tspan x="304.4" y="404" class="flame_core">Q%#$@@@@@@@@@@@@@@$$$$##%0Q</tspan><tspan x="477.2" y="404" class="flame_hot">OCL</tspan><tspan x="496.4" y="404" class="flame_mid">f</tspan><tspan x="278.8" y="416" class="flame_mid">rf</tspan><tspan x="291.6" y="416" class="flame_hot">xCO</tspan><tspan x="310.8" y="416" class="flame_core">Q%##$@@@@@@@@@@$$$$##%%0O</tspan><tspan x="470.8" y="416" class="flame_hot">GLx</tspan><tspan x="490.0" y="416" class="flame_mid">/</tspan><tspan x="285.2" y="428" class="flame_mid">rf</tspan><tspan x="298.0" y="428" class="flame_hot">xCG</tspan><tspan x="317.2" y="428" class="flame_core">Q00%####$$$$$$$$$##%0Q</tspan><tspan x="458.0" y="428" class="flame_hot">OCx</tspan><tspan x="477.2" y="428" class="flame_mid">fr</tspan><tspan x="298.0" y="440" class="flame_mid">/</tspan><tspan x="304.4" y="440" class="flame_hot">fLCGO</tspan><tspan x="336.4" y="440" class="flame_core">QQ00%%##$$$$$##%0O</tspan><tspan x="451.6" y="440" class="flame_hot">GLf</tspan><tspan x="470.8" y="440" class="flame_mid">rt</tspan><tspan x="310.8" y="452" class="flame_mid">r/</tspan><tspan x="323.6" y="452" class="flame_hot">fLLCG</tspan><tspan x="355.6" y="452" class="flame_core">OQ0%#$$$$#%0Q</tspan><tspan x="438.8" y="452" class="flame_hot">OCx</tspan><tspan x="458.0" y="452" class="flame_mid">/j</tspan><tspan x="323.6" y="464" class="flame_mid">1jrf</tspan><tspan x="349.2" y="464" class="flame_hot">xCG</tspan><tspan x="368.4" y="464" class="flame_core">Q0%#$$#%0Q</tspan><tspan x="432.4" y="464" class="flame_hot">GL</tspan><tspan x="445.2" y="464" class="flame_mid">fj</tspan><tspan x="342.8" y="476" class="flame_low">)</tspan><tspan x="349.2" y="476" class="flame_mid">t/</tspan><tspan x="362.0" y="476" class="flame_hot">xG</tspan><tspan x="374.8" y="476" class="flame_core">Q%#$#%0O</tspan><tspan x="426.0" y="476" class="flame_hot">C</tspan><tspan x="432.4" y="476" class="flame_mid">fj</tspan><tspan x="362.0" y="488" class="flame_low">)</tspan><tspan x="368.4" y="488" class="flame_mid">/</tspan><tspan x="374.8" y="488" class="flame_hot">L</tspan><tspan x="381.2" y="488" class="flame_core">Q%#%Q</tspan><tspan x="413.2" y="488" class="flame_hot">C</tspan><tspan x="419.6" y="488" class="flame_mid">ft</tspan></text></g>
</svg>