<svg xmlns="http://www.w3.org/2000/svg" class="artemis-avatar" viewBox="0 0 788 510" preserveAspectRatio="xMidYMid meet" style="display:block;width:100%;height:auto;max-width:100%;">
<style>svg.artemis-avatar { --avatar-speed: 2s; overflow: visible; }svg.artemis-avatar .lit_max{fill:#3a2a1a;}.lit_high{fill:#5a4525;}.lit_mid{fill:#7a5530;}.midtone{fill:#9b7a4a;}.shadow_lit{fill:#7d6850;}.shadow{fill:#574c40;}.shadow_deep{fill:#3a3035;}.terminator{fill:#5b4a55;}.deep{fill:#291f30;}@media (prefers-color-scheme: dark){.lit_max{fill:#fff8e0;}.lit_high{fill:#f0dca8;}.lit_mid{fill:#d8b878;}.midtone{fill:#a08858;}.shadow_lit{fill:#807058;}.shadow{fill:#605548;}.shadow_deep{fill:#403640;}.terminator{fill:#2f2538;}.deep{fill:#1a1428;}}</style>
<g class="frame"><text font-family="ui-monospace,Menlo,Consolas,Monaco,&quot;Courier New&quot;,monospace" font-size="11" xml:space="preserve"><tspan x="246.8" y="20" class="terminator">................</tspan><tspan x="349.2" y="20" class="deep">..</tspan><tspan x="362.0" y="20" class="terminator">.''</tspan><tspan x="381.2" y="20" class="shadow_deep">`,,:</tspan><tspan x="406.8" y="20" class="shadow">:;;!!</tspan><tspan x="438.8" y="20" class="shadow_lit">illII((</tspan><tspan x="483.6" y="20" class="midtone">)11ttjjt1)</tspan><tspan x="547.6" y="20" class="shadow_lit">(Ii</tspan><tspan x="566.8" y="20" class="shadow">;</tspan><tspan x="227.6" y="32" class="terminator">...................</tspan><tspan x="349.2" y="32" class="deep">..</tspan><tspan x="362.0" y="32" class="terminator">.''</tspan><tspan x="381.2" y="32" class="shadow_deep">``,,</tspan><tspan x="406.8" y="32" class="shadow">:;;!!</tspan><tspan x="438.8" y="32" class="shadow_lit">iillI((</tspan><tspan x="483.6" y="32" class="midtone">))11ttjr</tspan><tspan x="534.8" y="32" class="lit_mid">r//</tspan><tspan x="554.0" y="32" class="midtone">rt1</tspan><tspan x="573.2" y="32" class="shadow_lit">(l</tspan><tspan x="586.0" y="32" class="shadow">!</tspan><tspan x="208.4" y="44" class="terminator">.......................</tspan><tspan x="355.6" y="44" class="deep">..</tspan><tspan x="368.4" y="44" class="terminator">.'</tspan><tspan x="381.2" y="44" class="shadow_deep">``,,:</tspan><tspan x="413.2" y="44" class="shadow">:;;!!</tspan><tspan x="445.2" y="44" class="shadow_lit">illII((</tspan><tspan x="490.0" y="44" class="midtone">))1ttjjr</tspan><tspan x="541.2" y="44" class="lit_mid">r/ffx/</tspan><tspan x="579.6" y="44" class="midtone">j1</tspan><tspan x="592.4" y="44" class="shadow_lit">(l</tspan><tspan x="605.2" y="44" class="shadow">;</tspan><tspan x="189.2" y="56" class="terminator">..........................</tspan><tspan x="355.6" y="56" class="deep">..</tspan><tspan x="368.4" y="56" class="terminator">.''</tspan><tspan x="387.6" y="56" class="shadow_deep">``,,</tspan><tspan x="413.2" y="56" class="shadow">:;;!!</tspan><tspan x="445.2" y="56" class="shadow_lit">iillI((</tspan><tspan x="490.0" y="56" class="midtone">))11ttjr</tspan><tspan x="541.2" y="56" class="lit_mid">r//fxxLx/</tspan><tspan x="598.8" y="56" class="midtone">j1</tspan><tspan x="611.6" y="56" class="shadow_lit">I</tspan><tspan x="618.0" y="56" class="shadow">!</tspan><tspan x="176.4" y="68" class="terminator">.............................</tspan><tspan x="362.0" y="68" class="deep">..</tspan><tspan x="374.8" y="68" class="terminator">''</tspan><tspan x="387.6" y="68" class="shadow_deep">``,,:</tspan><tspan x="419.6" y="68" class="shadow">:;;!!</tspan><tspan x="451.6" y="68" class="shadow_lit">illII((</tspan><tspan x="496.4" y="68" class="midtone">))1ttjjr</tspan><tspan x="547.6" y="68" class="lit_mid">r/ffxxLCCxr</tspan><tspan x="618.0" y="68" class="midtone">t</tspan><tspan x="624.4" y="68" class="shadow_lit">(i</tspan><tspan x="163.6" y="80" class="terminator">...............................</tspan><tspan x="362.0" y="80" class="deep">..</tspan><tspan x="374.8" y="80" class="terminator">.''</tspan><tspan x="394.0" y="80" class="shadow_deep">``,:</tspan><tspan x="419.6" y="80" class="shadow">:;;!i</tspan><tspan x="451.6" y="80" class="shadow_lit">illlI((</tspan><tspan x="496.4" y="80" class="midtone">))11ttjr</tspan><tspan x="547.6" y="80" class="lit_mid">r//ffxLLC</tspan><tspan x="605.2" y="80" class="lit_high">CG</tspan><tspan x="618.0" y="80" class="lit_mid">L/</tspan><tspan x="630.8" y="80" class="midtone">t</tspan><tspan x="637.2" y="80" class="shadow_lit">(</tspan><tspan x="643.6" y="80" class="shadow">!</tspan><tspan x="150.8" y="92" class="terminator">..................................</tspan><tspan x="368.4" y="92" class="deep">.</tspan><tspan x="374.8" y="92" class="terminator">.''</tspan><tspan x="394.0" y="92" class="shadow_deep">``,,:</tspan><tspan x="426.0" y="92" class="shadow">:;!!</tspan><tspan x="451.6" y="92" class="shadow_lit">iillI((</tspan><tspan x="496.4" y="92" class="midtone">)11tttjjr</tspan><tspan x="554.0" y="92" class="lit_mid">r/ffxxLC</tspan><tspan x="605.2" y="92" class="lit_high">CGGG</tspan><tspan x="630.8" y="92" class="lit_mid">L/</tspan><tspan x="643.6" y="92" class="midtone">1</tspan><tspan x="650.0" y="92" class="shadow_lit">I</tspan><tspan x="144.4" y="104" class="terminator">...................................</tspan><tspan x="368.4" y="104" class="deep">..</tspan><tspan x="381.2" y="104" class="terminator">.''</tspan><tspan x="400.4" y="104" class="shadow_deep">``,:</tspan><tspan x="426.0" y="104" class="shadow">:;;!i</tspan><tspan x="458.0" y="104" class="shadow_lit">ilII(</tspan><tspan x="490.0" y="104" class="midtone">))11ttjjjr</tspan><tspan x="554.0" y="104" class="lit_mid">r//ffxLLC</tspan><tspan x="611.6" y="104" class="lit_high">CGOOG</tspan><tspan x="643.6" y="104" class="lit_mid">x</tspan><tspan x="650.0" y="104" class="midtone">j)</tspan><tspan x="662.8" y="104" class="shadow_lit">i</tspan><tspan x="131.6" y="116" class="terminator">.....................................</tspan><tspan x="368.4" y="116" class="deep">..</tspan><tspan x="381.2" y="116" class="terminator">.''</tspan><tspan x="400.4" y="116" class="shadow_deep">``,,:</tspan><tspan x="432.4" y="116" class="shadow">:;!!</tspan><tspan x="458.0" y="116" class="shadow_lit">ilII(</tspan><tspan x="490.0" y="116" class="midtone">))1ttjjjrr</tspan><tspan x="554.0" y="116" class="lit_mid">rr/ffxxLLC</tspan><tspan x="618.0" y="116" class="lit_high">GGOQQ</tspan><tspan x="650.0" y="116" class="lit_mid">C/</tspan><tspan x="662.8" y="116" class="midtone">1</tspan><tspan x="669.2" y="116" class="shadow_lit">l</tspan><tspan x="125.2" y="128" class="terminator">.......................................</tspan><tspan x="374.8" y="128" class="deep">..</tspan><tspan x="387.6" y="128" class="terminator">.''</tspan><tspan x="406.8" y="128" class="shadow_deep">`,,:</tspan><tspan x="432.4" y="128" class="shadow">:;!!</tspan><tspan x="458.0" y="128" class="shadow_lit">ilII(</tspan><tspan x="490.0" y="128" class="midtone">))1ttjjjrr</tspan><tspan x="554.0" y="128" class="lit_mid">rr//ffxLLC</tspan><tspan x="618.0" y="128" class="lit_high">CGOOQQG</tspan><tspan x="662.8" y="128" class="lit_mid">f</tspan><tspan x="669.2" y="128" class="midtone">t</tspan><tspan x="675.6" y="128" class="shadow_lit">I</tspan><tspan x="118.8" y="140" class="terminator">........................................</tspan><tspan x="374.8" y="140" class="deep">..</tspan><tspan x="387.6" y="140" class="terminator">.''</tspan><tspan x="406.8" y="140" class="shadow_deep">``,,</tspan><tspan x="432.4" y="140" class="shadow">:;;!</tspan><tspan x="458.0" y="140" class="shadow_lit">illI(</tspan><tspan x="490.0" y="140" class="midtone">))11ttjjjrrr</tspan><tspan x="566.8" y="140" class="lit_mid">r/ffxxLLC</tspan><tspan x="624.4" y="140" class="lit_high">GGOQQ0O</tspan><tspan x="669.2" y="140" class="lit_mid">x</tspan><tspan x="675.6" y="140" class="midtone">j</tspan><tspan x="682.0" y="140" class="shadow_lit">(</tspan><tspan x="112.4" y="152" class="terminator">..........................................</tspan><tspan x="381.2" y="152" class="deep">..</tspan><tspan x="394.0" y="152" class="terminator">.'</tspan><tspan x="406.8" y="152" class="shadow_deep">``,,:</tspan><tspan x="438.8" y="152" class="shadow">:;!!</tspan><tspan x="464.4" y="152" class="shadow_lit">ilII(</tspan><tspan x="496.4" y="152" class="midtone">))11ttjjjjr</tspan><tspan x="566.8" y="152" class="lit_mid">r//ffxLLC</tspan><tspan x="624.4" y="152" class="lit_high">CGOOQQ0O</tspan><tspan x="675.6" y="152" class="lit_mid">x</tspan><tspan x="682.0" y="152" class="midtone">j</tspan><tspan x="688.4" y="152" class="shadow_lit">I</tspan><tspan x="106.0" y="164" class="terminator">...........................................</tspan><tspan x="381.2" y="164" class="deep">..</tspan><tspan x="394.0" y="164" class="terminator">.''</tspan><tspan x="413.2" y="164" class="shadow_deep">``,,</tspan><tspan x="438.8" y="164" class="shadow">:;;!</tspan><tspan x="464.4" y="164" class="shadow_lit">iilI((</tspan><tspan x="502.8" y="164" class="midtone">))11ttttjjr</tspan><tspan x="573.2" y="164" class="lit_mid">r/ffxxLC</tspan><tspan x="624.4" y="164" class="lit_high">CGGOQQ00G</tspan><tspan x="682.0" y="164" class="lit_mid">f</tspan><tspan x="688.4" y="164" class="midtone">t</tspan><tspan x="694.8" y="164" class="shadow_lit">l</tspan><tspan x="106.0" y="176" class="terminator">...........................................</tspan><tspan x="381.2" y="176" class="deep">..</tspan><tspan x="394.0" y="176" class="terminator">.''</tspan><tspan x="413.2" y="176" class="shadow_deep">``,,:</tspan><tspan x="445.2" y="176" class="shadow">:;;!</tspan><tspan x="470.8" y="176" class="shadow_lit">iilII((</tspan><tspan x="515.6" y="176" class="midtone">))111ttjr</tspan><tspan x="573.2" y="176" class="lit_mid">r//ffxLLC</tspan><tspan x="630.8" y="176" class="lit_high">CGOOQQ0%G</tspan><tspan x="688.4" y="176" class="lit_mid">/</tspan><tspan x="694.8" y="176" class="midtone">1</tspan><tspan x="701.2" y="176" class="shadow_lit">i</tspan><tspan x="99.6" y="188" class="terminator">.............................................</tspan><tspan x="387.6" y="188" class="deep">..</tspan><tspan x="400.4" y="188" class="terminator">.''</tspan><tspan x="419.6" y="188" class="shadow_deep">``,:</tspan><tspan x="445.2" y="188" class="shadow">:;;!!</tspan><tspan x="477.2" y="188" class="shadow_lit">iillI(((</tspan><tspan x="528.4" y="188" class="midtone">)11ttjjr</tspan><tspan x="579.6" y="188" class="lit_mid">r/ffxxLC</tspan><tspan x="630.8" y="188" class="lit_high">CGGOQQ00Q</tspan><tspan x="688.4" y="188" class="lit_mid">L</tspan><tspan x="694.8" y="188" class="midtone">r</tspan><tspan x="701.2" y="188" class="shadow_lit">(</tspan><tspan x="93.2" y="200" class="terminator">..............................................</tspan><tspan x="387.6" y="200" class="deep">..</tspan><tspan x="400.4" y="200" class="terminator">.''</tspan><tspan x="419.6" y="200" class="shadow_deep">``,,:</tspan><tspan x="451.6" y="200" class="shadow">:;;!!</tspan><tspan x="483.6" y="200" class="shadow_lit">illII((</tspan><tspan x="528.4" y="200" class="midtone">)11ttjjr</tspan><tspan x="579.6" y="200" class="lit_mid">r//fxxLLC</tspan><tspan x="637.2" y="200" class="lit_high">CGOOQ00%G</tspan><tspan x="694.8" y="200" class="lit_mid">f</tspan><tspan x="701.2" y="200" class="midtone">1</tspan><tspan x="707.6" y="200" class="shadow_lit">l</tspan><tspan x="93.2" y="212" class="terminator">...............................................</tspan><tspan x="394.0" y="212" class="deep">..</tspan><tspan x="406.8" y="212" class="terminator">.''</tspan><tspan x="426.0" y="212" class="shadow_deep">`,,:</tspan><tspan x="451.6" y="212" class="shadow">:;;!!</tspan><tspan x="483.6" y="212" class="shadow_lit">iillI(</tspan><tspan x="522.0" y="212" class="midtone">))11tttjjr</tspan><tspan x="586.0" y="212" class="lit_mid">//ffxxLC</tspan><tspan x="637.2" y="212" class="lit_high">CGGOQQ0%Q</tspan><tspan x="694.8" y="212" class="lit_mid">L</tspan><tspan x="701.2" y="212" class="midtone">j</tspan><tspan x="707.6" y="212" class="shadow_lit">(</tspan><tspan x="93.2" y="224" class="terminator">...............................................</tspan><tspan x="394.0" y="224" class="deep">..</tspan><tspan x="406.8" y="224" class="terminator">.''</tspan><tspan x="426.0" y="224" class="shadow_deep">``,,:</tspan><tspan x="458.0" y="224" class="shadow">:;;!i</tspan><tspan x="490.0" y="224" class="shadow_lit">illII(</tspan><tspan x="528.4" y="224" class="midtone">))11ttjjr</tspan><tspan x="586.0" y="224" class="lit_mid">r//fxxLLC</tspan><tspan x="643.6" y="224" class="lit_high">GGOOQ00%C</tspan><tspan x="701.2" y="224" class="lit_mid">/</tspan><tspan x="707.6" y="224" class="midtone">)</tspan><tspan x="93.2" y="236" class="terminator">................................................</tspan><tspan x="400.4" y="236" class="deep">..</tspan><tspan x="413.2" y="236" class="terminator">.'</tspan><tspan x="426.0" y="236" class="shadow_deep">``,,:</tspan><tspan x="458.0" y="236" class="shadow">:;;!!</tspan><tspan x="490.0" y="236" class="shadow_lit">iillI((</tspan><tspan x="534.8" y="236" class="midtone">))11ttjr</tspan><tspan x="586.0" y="236" class="lit_mid">r//ffxLLC</tspan><tspan x="643.6" y="236" class="lit_high">CGOOQQ0%G</tspan><tspan x="701.2" y="236" class="lit_mid">f</tspan><tspan x="707.6" y="236" class="midtone">1</tspan><tspan x="714.0" y="236" class="shadow_lit">i</tspan><tspan x="86.8" y="248" class="terminator">.................................................</tspan><tspan x="400.4" y="248" class="deep">..</tspan><tspan x="413.2" y="248" class="terminator">.''</tspan><tspan x="432.4" y="248" class="shadow_deep">``,,</tspan><tspan x="458.0" y="248" class="shadow">::;!!</tspan><tspan x="490.0" y="248" class="shadow_lit">iillII((</tspan><tspan x="541.2" y="248" class="midtone">))1ttjr</tspan><tspan x="586.0" y="248" class="lit_mid">r//ffxxLLC</tspan><tspan x="650.0" y="248" class="lit_high">GGOQQ00O</tspan><tspan x="701.2" y="248" class="lit_mid">f</tspan><tspan x="707.6" y="248" class="midtone">t</tspan><tspan x="714.0" y="248" class="shadow_lit">l</tspan><tspan x="86.8" y="260" class="terminator">.................................................</tspan><tspan x="400.4" y="260" class="deep">...</tspan><tspan x="419.6" y="260" class="terminator">''</tspan><tspan x="432.4" y="260" class="shadow_deep">``,,:</tspan><tspan x="464.4" y="260" class="shadow">:;;!!</tspan><tspan x="496.4" y="260" class="shadow_lit">iilII((</tspan><tspan x="541.2" y="260" class="midtone">))11ttjr</tspan><tspan x="592.4" y="260" class="lit_mid">r//ffxLLC</tspan><tspan x="650.0" y="260" class="lit_high">CGOOQ00O</tspan><tspan x="701.2" y="260" class="lit_mid">f</tspan><tspan x="707.6" y="260" class="midtone">t</tspan><tspan x="714.0" y="260" class="shadow_lit">l</tspan><tspan x="86.8" y="272" class="terminator">..................................................</tspan><tspan x="406.8" y="272" class="deep">..</tspan><tspan x="419.6" y="272" class="terminator">.''</tspan><tspan x="438.8" y="272" class="shadow_deep">``,:</tspan><tspan x="464.4" y="272" class="shadow">:;;!!</tspan><tspan x="496.4" y="272" class="shadow_lit">iillII((</tspan><tspan x="547.6" y="272" class="midtone">)11ttjjr</tspan><tspan x="598.8" y="272" class="lit_mid">//ffxxLC</tspan><tspan x="650.0" y="272" class="lit_high">CGGOQQ0G</tspan><tspan x="701.2" y="272" class="lit_mid">f</tspan><tspan x="707.6" y="272" class="midtone">1</tspan><tspan x="714.0" y="272" class="shadow_lit">l</tspan><tspan x="93.2" y="284" class="terminator">.................................................</tspan><tspan x="406.8" y="284" class="deep">..</tspan><tspan x="419.6" y="284" class="terminator">.''</tspan><tspan x="438.8" y="284" class="shadow_deep">``,,:</tspan><tspan x="470.8" y="284" class="shadow">:;;!!</tspan><tspan x="502.8" y="284" class="shadow_lit">illII((</tspan><tspan x="547.6" y="284" class="midtone">))11tjjr</tspan><tspan x="598.8" y="284" class="lit_mid">r//fxxLLC</tspan><tspan x="656.4" y="284" class="lit_high">GGOOQ0C</tspan><tspan x="701.2" y="284" class="lit_mid">/</tspan><tspan x="707.6" y="284" class="midtone">1</tspan><tspan x="714.0" y="284" class="shadow_lit">i</tspan><tspan x="93.2" y="296" class="terminator">..................................................</tspan><tspan x="413.2" y="296" class="deep">..</tspan><tspan x="426.0" y="296" class="terminator">.'</tspan><tspan x="438.8" y="296" class="shadow_deep">``,,:</tspan><tspan x="470.8" y="296" class="shadow">:;;!!</tspan><tspan x="502.8" y="296" class="shadow_lit">iillI((</tspan><tspan x="547.6" y="296" class="midtone">))11ttjr</tspan><tspan x="598.8" y="296" class="lit_mid">r//ffxLLC</tspan><tspan x="656.4" y="296" class="lit_high">CGOOQQ</tspan><tspan x="694.8" y="296" class="lit_mid">L</tspan><tspan x="701.2" y="296" class="midtone">r</tspan><tspan x="707.6" y="296" class="shadow_lit">(</tspan><tspan x="93.2" y="308" class="terminator">..................................................</tspan><tspan x="413.2" y="308" class="deep">..</tspan><tspan x="426.0" y="308" class="terminator">.''</tspan><tspan x="445.2" y="308" class="shadow_deep">``,,</tspan><tspan x="470.8" y="308" class="shadow">::;!!i</tspan><tspan x="509.2" y="308" class="shadow_lit">illII((</tspan><tspan x="554.0" y="308" class="midtone">)1ttjjjr</tspan><tspan x="605.2" y="308" class="lit_mid">r/ffxxLC</tspan><tspan x="656.4" y="308" class="lit_high">CGGOQO</tspan><tspan x="694.8" y="308" class="lit_mid">x</tspan><tspan x="701.2" y="308" class="midtone">t</tspan><tspan x="707.6" y="308" class="shadow_lit">I</tspan><tspan x="93.2" y="320" class="terminator">...................................................</tspan><tspan x="419.6" y="320" class="deep">.</tspan><tspan x="426.0" y="320" class="terminator">.''</tspan><tspan x="445.2" y="320" class="shadow_deep">``,,:</tspan><tspan x="477.2" y="320" class="shadow">:;;!!</tspan><tspan x="509.2" y="320" class="shadow_lit">iilII(</tspan><tspan x="547.6" y="320" class="midtone">))1ttjjjr</tspan><tspan x="605.2" y="320" class="lit_mid">r//fxxLLC</tspan><tspan x="662.8" y="320" class="lit_high">GGOO</tspan><tspan x="688.4" y="320" class="lit_mid">Lr</tspan><tspan x="701.2" y="320" class="midtone">)</tspan><tspan x="707.6" y="320" class="shadow_lit">i</tspan><tspan x="99.6" y="332" class="terminator">..................................................</tspan><tspan x="419.6" y="332" class="deep">..</tspan><tspan x="432.4" y="332" class="terminator">.''</tspan><tspan x="451.6" y="332" class="shadow_deep">``,,</tspan><tspan x="477.2" y="332" class="shadow">:;;!!</tspan><tspan x="509.2" y="332" class="shadow_lit">iillII(</tspan><tspan x="554.0" y="332" class="midtone">)11ttjjj</tspan><tspan x="605.2" y="332" class="lit_mid">r//ffxLLC</tspan><tspan x="662.8" y="332" class="lit_high">CGOG</tspan><tspan x="688.4" y="332" class="lit_mid">f</tspan><tspan x="694.8" y="332" class="midtone">t</tspan><tspan x="701.2" y="332" class="shadow_lit">I</tspan><tspan x="106.0" y="344" class="terminator">.................................................</tspan><tspan x="419.6" y="344" class="deep">..</tspan><tspan x="432.4" y="344" class="terminator">.''</tspan><tspan x="451.6" y="344" class="shadow_deep">``,,:</tspan><tspan x="483.6" y="344" class="shadow">:;;!!</tspan><tspan x="515.6" y="344" class="shadow_lit">illII((</tspan><tspan x="560.4" y="344" class="midtone">)11ttjjr</tspan><tspan x="611.6" y="344" class="lit_mid">r/ffxxLC</tspan><tspan x="662.8" y="344" class="lit_high">CGG</tspan><tspan x="682.0" y="344" class="lit_mid">x</tspan><tspan x="688.4" y="344" class="midtone">j</tspan><tspan x="694.8" y="344" class="shadow_lit">(</tspan><tspan x="701.2" y="344" class="shadow">!</tspan><tspan x="106.0" y="356" class="terminator">..................................................</tspan><tspan x="426.0" y="356" class="deep">.</tspan><tspan x="432.4" y="356" class="terminator">.''</tspan><tspan x="451.6" y="356" class="shadow_deep">``,,:</tspan><tspan x="483.6" y="356" class="shadow">:;;!!</tspan><tspan x="515.6" y="356" class="shadow_lit">iillI((</tspan><tspan x="560.4" y="356" class="midtone">))11tjjr</tspan><tspan x="611.6" y="356" class="lit_mid">r//fxxLLC</tspan><tspan x="669.2" y="356" class="lit_high">G</tspan><tspan x="675.6" y="356" class="lit_mid">x</tspan><tspan x="682.0" y="356" class="midtone">r)</tspan><tspan x="694.8" y="356" class="shadow_lit">i</tspan><tspan x="112.4" y="368" class="terminator">.................................................</tspan><tspan x="426.0" y="368" class="deep">..</tspan><tspan x="438.8" y="368" class="terminator">.''</tspan><tspan x="458.0" y="368" class="shadow_deep">``,,</tspan><tspan x="483.6" y="368" class="shadow">::;!!</tspan><tspan x="515.6" y="368" class="shadow_lit">iillII((</tspan><tspan x="566.8" y="368" class="midtone">)11ttjj</tspan><tspan x="611.6" y="368" class="lit_mid">r//ffxLLCx</tspan><tspan x="675.6" y="368" class="midtone">r)</tspan><tspan x="688.4" y="368" class="shadow_lit">l</tspan><tspan x="118.8" y="380" class="terminator">.................................................</tspan><tspan x="432.4" y="380" class="deep">.</tspan><tspan x="438.8" y="380" class="terminator">.''</tspan><tspan x="458.0" y="380" class="shadow_deep">``,,:</tspan><tspan x="490.0" y="380" class="shadow">:;;!!</tspan><tspan x="522.0" y="380" class="shadow_lit">illII((</tspan><tspan x="566.8" y="380" class="midtone">))1ttjjr</tspan><tspan x="618.0" y="380" class="lit_mid">r/ffxxLf</tspan><tspan x="669.2" y="380" class="midtone">j)</tspan><tspan x="682.0" y="380" class="shadow_lit">l</tspan><tspan x="125.2" y="392" class="terminator">................................................</tspan><tspan x="432.4" y="392" class="deep">..</tspan><tspan x="445.2" y="392" class="terminator">.''</tspan><tspan x="464.4" y="392" class="shadow_deep">``,:</tspan><tspan x="490.0" y="392" class="shadow">:;;!!</tspan><tspan x="522.0" y="392" class="shadow_lit">iillI((</tspan><tspan x="566.8" y="392" class="midtone">))11tjjr</tspan><tspan x="618.0" y="392" class="lit_mid">r//fxx/</tspan><tspan x="662.8" y="392" class="midtone">t</tspan><tspan x="669.2" y="392" class="shadow_lit">(i</tspan><tspan x="131.6" y="404" class="terminator">...............................................</tspan><tspan x="432.4" y="404" class="deep">..</tspan><tspan x="445.2" y="404" class="terminator">.''</tspan><tspan x="464.4" y="404" class="shadow_deep">``,,:</tspan><tspan x="496.4" y="404" class="shadow">:;!!</tspan><tspan x="522.0" y="404" class="shadow_lit">iillII((</tspan><tspan x="573.2" y="404" class="midtone">)11ttjr</tspan><tspan x="618.0" y="404" class="lit_mid">r//ff</tspan><tspan x="650.0" y="404" class="midtone">r1</tspan><tspan x="662.8" y="404" class="shadow_lit">I</tspan><tspan x="669.2" y="404" class="shadow">!</tspan><tspan x="144.4" y="416" class="terminator">..............................................</tspan><tspan x="438.8" y="416" class="deep">..</tspan><tspan x="451.6" y="416" class="terminator">.'</tspan><tspan x="464.4" y="416" class="shadow_deep">``,,:</tspan><tspan x="496.4" y="416" class="shadow">:;;!!</tspan><tspan x="528.4" y="416" class="shadow_lit">iilII((</tspan><tspan x="573.2" y="416" class="midtone">))1ttjjr</tspan><tspan x="624.4" y="416" class="lit_mid">//r</tspan><tspan x="643.6" y="416" class="midtone">t)</tspan><tspan x="656.4" y="416" class="shadow_lit">l</tspan><tspan x="662.8" y="416" class="shadow">;</tspan><tspan x="150.8" y="428" class="terminator">.............................................</tspan><tspan x="438.8" y="428" class="deep">..</tspan><tspan x="451.6" y="428" class="terminator">.''</tspan><tspan x="470.8" y="428" class="shadow_deep">``,,</tspan><tspan x="496.4" y="428" class="shadow">:;;!!</tspan><tspan x="528.4" y="428" class="shadow_lit">iillI((</tspan><tspan x="573.2" y="428" class="midtone">))11tjjrrt)</tspan><tspan x="643.6" y="428" class="shadow_lit">I</tspan><tspan x="650.0" y="428" class="shadow">!</tspan><tspan x="163.6" y="440" class="terminator">............................................</tspan><tspan x="445.2" y="440" class="deep">..</tspan><tspan x="458.0" y="440" class="terminator">.'</tspan><tspan x="470.8" y="440" class="shadow_deep">``,,:</tspan><tspan x="502.8" y="440" class="shadow">:;;!i</tspan><tspan x="534.8" y="440" class="shadow_lit">illII((</tspan><tspan x="579.6" y="440" class="midtone">)11ttj1)</tspan><tspan x="630.8" y="440" class="shadow_lit">I</tspan><tspan x="637.2" y="440" class="shadow">i:</tspan><tspan x="176.4" y="452" class="terminator">..........................................</tspan><tspan x="445.2" y="452" class="deep">..</tspan><tspan x="458.0" y="452" class="terminator">.''</tspan><tspan x="477.2" y="452" class="shadow_deep">``,:</tspan><tspan x="502.8" y="452" class="shadow">:;;!!</tspan><tspan x="534.8" y="452" class="shadow_lit">iilII((</tspan><tspan x="579.6" y="452" class="midtone">))1t)</tspan><tspan x="611.6" y="452" class="shadow_lit">(l</tspan><tspan x="624.4" y="452" class="shadow">!:</tspan><tspan x="189.2" y="464" class="terminator">.........................................</tspan><tspan x="451.6" y="464" class="deep">.</tspan><tspan x="458.0" y="464" class="terminator">.''</tspan><tspan x="477.2" y="464" class="shadow_deep">``,,</tspan><tspan x="502.8" y="464" class="shadow">::;!!</tspan><tspan x="534.8" y="464" class="shadow_lit">iillI((</tspan><tspan x="579.6" y="464" class="midtone">))</tspan><tspan x="592.4" y="464" class="shadow_lit">(li</tspan><tspan x="611.6" y="464" class="shadow">!</tspan><tspan x="618.0" y="464" class="shadow_deep">:</tspan><tspan x="208.4" y="476" class="terminator">......................................</tspan><tspan x="451.6" y="476" class="deep">..</tspan><tspan x="464.4" y="476" class="terminator">.''</tspan><tspan x="483.6" y="476" class="shadow_deep">`,,:</tspan><tspan x="509.2" y="476" class="shadow">:;;!i</tspan><tspan x="541.2" y="476" class="shadow_lit">illIIIli</tspan><tspan x="592.4" y="476" class="shadow">!:</tspan><tspan x="605.2" y="476" class="shadow_deep">,</tspan><tspan x="227.6" y="488" class="terminator">...................................</tspan><tspan x="451.6" y="488" class="deep">..</tspan><tspan x="464.4" y="488" class="terminator">.''</tspan><tspan x="483.6" y="488" class="shadow_deep">``,:</tspan><tspan x="509.2" y="488" class="shadow">:;;!!</tspan><tspan x="541.2" y="488" class="shadow_lit">iii</tspan><tspan x="560.4" y="488" class="shadow">!!;:</tspan><tspan x="586.0" y="488" class="shadow_deep">,</tspan></text></g>
</svg>