<svg xmlns="http://www.w3.org/2000/svg" class="artemis-avatar" viewBox="0 0 788 510" preserveAspectRatio="xMidYMid meet" style="display:block;width:100%;height:auto;max-width:100%;">
<style>svg.artemis-avatar { --avatar-speed: 2s; overflow: visible; }svg.artemis-avatar .chrome_max{fill:#e8e8f0;}.chrome_lit{fill:#b8b8c8;}.chrome_mid{fill:#888898;}.chrome_dim{fill:#585870;}.chrome_deep{fill:#28283a;}.visor_dark{fill:#0a0612;}.visor_low{fill:#1a0d18;}.visor_mid{fill:#3a1820;}.visor_hi{fill:#5a2030;}.scan_dim{fill:#a01018;}.scan_mid{fill:#d8202a;}.scan_hot{fill:#ff3040;}.scan_burst{fill:#ffe060;}.rim_accent{fill:#1a1828;}.led_red{fill:#c01030;}@media (prefers-color-scheme: dark){.chrome_max{fill:#ffffff;}.chrome_lit{fill:#dde0ec;}.chrome_mid{fill:#9ca5bd;}.chrome_dim{fill:#6a7290;}.chrome_deep{fill:#363a55;}.visor_dark{fill:#08050f;}.visor_low{fill:#181020;}.visor_mid{fill:#2a1830;}.visor_hi{fill:#3a2040;}.scan_dim{fill:#ff3050;}.scan_mid{fill:#ff5070;}.scan_hot{fill:#ff80a0;}.scan_burst{fill:#ffffff;}.rim_accent{fill:#404858;}.led_red{fill:#ff4060;}}</style>
<g class="frame"><text font-family="ui-monospace,Menlo,Consolas,Monaco,&quot;Courier New&quot;,monospace" font-size="11" xml:space="preserve"><tspan x="336.4" y="20" class="chrome_max">@@@@@@@@@</tspan><tspan x="394.0" y="20" class="chrome_lit">'</tspan><tspan x="400.4" y="20" class="chrome_max">##%%0</tspan><tspan x="432.4" y="20" class="chrome_lit">0QOG</tspan><tspan x="323.6" y="32" class="chrome_max">@@@@@@@@@$#</tspan><tspan x="394.0" y="32" class="chrome_lit">'</tspan><tspan x="400.4" y="32" class="chrome_max">%%00</tspan><tspan x="426.0" y="32" class="chrome_lit">0QQQQOC</tspan><tspan x="310.8" y="44" class="chrome_max">$@@@@@@@$$#%%</tspan><tspan x="394.0" y="44" class="chrome_lit">'</tspan><tspan x="400.4" y="44" class="chrome_max">000</tspan><tspan x="419.6" y="44" class="chrome_lit">0QQQQQOOOC</tspan><tspan x="298.0" y="56" class="chrome_max">$@@@@@@@$##%%%0</tspan><tspan x="394.0" y="56" class="chrome_lit">'</tspan><tspan x="400.4" y="56" class="chrome_max">0</tspan><tspan x="406.8" y="56" class="chrome_lit">0QQQQQQQOOOOOC</tspan><tspan x="285.2" y="68" class="chrome_max">@$@@@@@@$##%%%000</tspan><tspan x="394.0" y="68" class="chrome_lit">'QQQQQQQQOOOOOOGCC</tspan><tspan x="278.8" y="80" class="chrome_max">@@@@@@@@$#%%%0000</tspan><tspan x="387.6" y="80" class="chrome_lit">0'QQQQQQQOOOOOOOOGGC</tspan><tspan x="272.4" y="92" class="chrome_max">$@@@@@@$##%%%000</tspan><tspan x="374.8" y="92" class="chrome_lit">0QQ'QQQQQQOOOOOOOOOGGCL</tspan><tspan x="266.0" y="104" class="chrome_lit">O</tspan><tspan x="272.4" y="104" class="chrome_max">%@$%0</tspan><tspan x="304.4" y="104" class="chrome_lit">QOGGGCCCLLLLLL'xxxxxxxxxxxffff</tspan><tspan x="496.4" y="104" class="chrome_mid">ff/rr</tspan><tspan x="259.6" y="116" class="chrome_lit">OO</tspan><tspan x="272.4" y="116" class="chrome_max">$#%</tspan><tspan x="291.6" y="116" class="chrome_lit">0QOGGCCCCLLLLLLL'xxxxxxxxxxxffff</tspan><tspan x="496.4" y="116" class="chrome_mid">fff/rr</tspan><tspan x="259.6" y="128" class="chrome_lit">C</tspan><tspan x="266.0" y="128" class="chrome_max">%%0</tspan><tspan x="285.2" y="128" class="chrome_lit">QOOGGCCCLLLLLLLxx'xxxxxxxxxxfffff</tspan><tspan x="496.4" y="128" class="chrome_mid">fff//j</tspan><tspan x="253.2" y="140" class="chrome_lit">GQ</tspan><tspan x="266.0" y="140" class="chrome_max">00</tspan><tspan x="278.8" y="140" class="chrome_lit">QOGGGCCCLLLLLLLxxx'xxxxxxxxxxfffff</tspan><tspan x="496.4" y="140" class="chrome_mid">fff//rj</tspan><tspan x="246.8" y="152" class="chrome_lit">OCQQQOGGCCCCLLLLLLLxxxx'xxxxxxxxxfffff</tspan><tspan x="490.0" y="152" class="chrome_mid">ffff///jr</tspan><tspan x="246.8" y="164" class="chrome_lit">COQOOGGCCCCLLLLLLLxxxxx'xxxxxxxxffffff</tspan><tspan x="490.0" y="164" class="chrome_mid">fffff//rj</tspan><tspan x="246.8" y="176" class="chrome_lit">COOOGGCCCCLLLLLLLxxxxxxxxxxxxxxxffffff</tspan><tspan x="490.0" y="176" class="chrome_mid">fffff//rt</tspan><tspan x="240.4" y="188" class="chrome_lit">GCGGGGCCCLLLLLLL</tspan><tspan x="342.8" y="188" class="rim_accent">!!!!!!!!!!!!!!!!!</tspan><tspan x="451.6" y="188" class="chrome_lit">fffff</tspan><tspan x="483.6" y="188" class="chrome_mid">fffff///rjj</tspan><tspan x="240.4" y="200" class="chrome_lit">CCGGGCC</tspan><tspan x="285.2" y="200" class="rim_accent">!!!!!!!!!!</tspan><tspan x="349.2" y="200" class="visor_mid">;;;;;;;;;;;;;;;</tspan><tspan x="445.2" y="200" class="rim_accent">!!!!!!!!!!</tspan><tspan x="509.2" y="200" class="chrome_mid">f////rt</tspan><tspan x="240.4" y="212" class="chrome_lit">LCG</tspan><tspan x="259.6" y="212" class="rim_accent">!!!!!</tspan><tspan x="291.6" y="212" class="visor_mid">;!!!!!!!!!!!iiiiiiiii!!!!!!!!!!!;</tspan><tspan x="502.8" y="212" class="rim_accent">!!!!!</tspan><tspan x="534.8" y="212" class="chrome_mid">/r1</tspan><tspan x="240.4" y="224" class="chrome_lit">LC</tspan><tspan x="253.2" y="224" class="rim_accent">!!</tspan><tspan x="266.0" y="224" class="scan_dim">`````````````````````````````````````````</tspan><tspan x="528.4" y="224" class="rim_accent">!!</tspan><tspan x="541.2" y="224" class="chrome_mid">r1</tspan><tspan x="240.4" y="236" class="chrome_lit">LC</tspan><tspan x="253.2" y="236" class="rim_accent">!</tspan><tspan x="259.6" y="236" class="scan_dim">```````````````````````````````````````````</tspan><tspan x="534.8" y="236" class="rim_accent">!</tspan><tspan x="541.2" y="236" class="chrome_mid">r1</tspan><tspan x="240.4" y="248" class="chrome_lit">LC</tspan><tspan x="253.2" y="248" class="rim_accent">!!!</tspan><tspan x="272.4" y="248" class="visor_mid">!!!!!iiiiiiiiiiillllllliiiiiiiiiii!!!!!</tspan><tspan x="522.0" y="248" class="rim_accent">!!!</tspan><tspan x="541.2" y="248" class="chrome_mid">r1</tspan><tspan x="240.4" y="260" class="chrome_lit">LLLL</tspan><tspan x="266.0" y="260" class="rim_accent">!!!!!!</tspan><tspan x="304.4" y="260" class="visor_mid">;;;;!!!!!!!!!!!!!!!!!!!!!;;;;</tspan><tspan x="490.0" y="260" class="rim_accent">!!!!!!</tspan><tspan x="528.4" y="260" class="chrome_mid">/rr1</tspan><tspan x="240.4" y="272" class="chrome_lit">LLLLLLLLL</tspan><tspan x="298.0" y="272" class="rim_accent">!!!!!!!!!!!!!!!!!!!!!!!!!!!!!!!</tspan><tspan x="496.4" y="272" class="chrome_mid">f/////rj1</tspan><tspan x="240.4" y="284" class="chrome_lit">xLLLLLLLxxxxxxxxxxxxxxxxxffffffff</tspan><tspan x="451.6" y="284" class="chrome_mid">ffffffff/////rj1</tspan><tspan x="240.4" y="296" class="chrome_lit">xLLLLLLxxxxxxxxxxxxxxxxfffffffff</tspan><tspan x="445.2" y="296" class="chrome_mid">ffffffff/////rrj1</tspan><tspan x="240.4" y="308" class="chrome_lit">xxLLLLxxxxxxxxxxxxxxxxfffffffff</tspan><tspan x="438.8" y="308" class="chrome_mid">ffffffff//////rrt1</tspan><tspan x="246.8" y="320" class="chrome_lit">xxxxxxxxxxxxxxxxxxxxfffffffff</tspan><tspan x="432.4" y="320" class="chrome_mid">fffffffff/////rrj)</tspan><tspan x="246.8" y="332" class="chrome_lit">fxxxxx</tspan><tspan x="285.2" y="332" class="chrome_deep">.</tspan><tspan x="291.6" y="332" class="chrome_lit">x</tspan><tspan x="298.0" y="332" class="chrome_deep">.</tspan><tspan x="304.4" y="332" class="chrome_lit">x</tspan><tspan x="310.8" y="332" class="chrome_deep">.</tspan><tspan x="317.2" y="332" class="chrome_lit">x</tspan><tspan x="323.6" y="332" class="chrome_deep">.</tspan><tspan x="330.0" y="332" class="chrome_lit">xxxxxxfffffffff</tspan><tspan x="426.0" y="332" class="chrome_mid">ffffff</tspan><tspan x="464.4" y="332" class="chrome_deep">.</tspan><tspan x="470.8" y="332" class="chrome_mid">f</tspan><tspan x="477.2" y="332" class="chrome_deep">.</tspan><tspan x="483.6" y="332" class="chrome_mid">/</tspan><tspan x="490.0" y="332" class="chrome_deep">.</tspan><tspan x="496.4" y="332" class="chrome_mid">/</tspan><tspan x="502.8" y="332" class="chrome_deep">.</tspan><tspan x="509.2" y="332" class="chrome_mid">//rrt)</tspan><tspan x="253.2" y="344" class="chrome_lit">xxxxxxxxxxxxxxxxxfffffffff</tspan><tspan x="419.6" y="344" class="chrome_mid">fffffffff//////rrj</tspan><tspan x="534.8" y="344" class="chrome_dim">)</tspan><tspan x="253.2" y="356" class="chrome_lit">fxxxxx</tspan><tspan x="291.6" y="356" class="chrome_deep">.</tspan><tspan x="298.0" y="356" class="chrome_lit">x</tspan><tspan x="304.4" y="356" class="chrome_deep">.</tspan><tspan x="310.8" y="356" class="chrome_lit">x</tspan><tspan x="317.2" y="356" class="chrome_deep">.</tspan><tspan x="323.6" y="356" class="chrome_lit">xxxxfffffffff</tspan><tspan x="406.8" y="356" class="chrome_mid">ffffffff</tspan><tspan x="458.0" y="356" class="chrome_deep">.</tspan><tspan x="464.4" y="356" class="chrome_mid">f</tspan><tspan x="470.8" y="356" class="chrome_deep">.</tspan><tspan x="477.2" y="356" class="chrome_mid">/</tspan><tspan x="483.6" y="356" class="chrome_deep">.</tspan><tspan x="490.0" y="356" class="chrome_mid">/</tspan><tspan x="496.4" y="356" class="chrome_deep">.</tspan><tspan x="502.8" y="356" class="chrome_mid">/rrjt)</tspan><tspan x="259.6" y="368" class="chrome_mid">f</tspan><tspan x="266.0" y="368" class="chrome_lit">xxxxxxxxxxxxfffffffff</tspan><tspan x="400.4" y="368" class="chrome_mid">ffffffffff//////rrrt</tspan><tspan x="528.4" y="368" class="chrome_dim">)</tspan><tspan x="266.0" y="380" class="chrome_mid">f</tspan><tspan x="272.4" y="380" class="chrome_lit">xxxxxxxxxfffffffff</tspan><tspan x="387.6" y="380" class="chrome_mid">fffffffffff//////rrrj</tspan><tspan x="522.0" y="380" class="chrome_dim">(</tspan><tspan x="272.4" y="392" class="chrome_mid">/</tspan><tspan x="278.8" y="392" class="chrome_lit">fxxxxfffffffffff</tspan><tspan x="381.2" y="392" class="chrome_mid">ffffffffff///////rrrj</tspan><tspan x="515.6" y="392" class="chrome_dim">(</tspan><tspan x="278.8" y="404" class="chrome_mid">/</tspan><tspan x="285.2" y="404" class="chrome_lit">ffffffffffff</tspan><tspan x="362.0" y="404" class="chrome_mid">ffffffffffff///////rrrj</tspan><tspan x="509.2" y="404" class="chrome_dim">(</tspan><tspan x="285.2" y="416" class="chrome_mid">/ff</tspan><tspan x="304.4" y="416" class="chrome_lit">fffffff</tspan><tspan x="349.2" y="416" class="chrome_mid">ffffffffffff////////rrjt</tspan><tspan x="502.8" y="416" class="chrome_dim">)</tspan><tspan x="291.6" y="428" class="chrome_mid">f/fffffffffffffffff////////rrrj1)</tspan><tspan x="298.0" y="440" class="chrome_mid">f//ffffffffffff/////////rrrjt</tspan><tspan x="483.6" y="440" class="chrome_dim">)</tspan><tspan x="490.0" y="440" class="chrome_mid">1</tspan><tspan x="310.8" y="452" class="chrome_mid">f/r/////////////////rrrj111</tspan><tspan x="330.0" y="464" class="chrome_mid">/rr//////////rrrrjtt)</tspan><tspan x="349.2" y="476" class="chrome_mid">/rrjjjjjjjtttt1</tspan><tspan x="381.2" y="488" class="chrome_mid">rrrjj</tspan></text></g>
</svg>