<svg xmlns="http://www.w3.org/2000/svg" class="artemis-avatar" viewBox="0 0 788 510" preserveAspectRatio="xMidYMid meet" style="display:block;width:100%;height:auto;max-width:100%;">
<style>svg.artemis-avatar { --avatar-speed: 4s; overflow: visible; }svg.artemis-avatar .wisp_faint{fill:#a098b8;}.body_deep{fill:#8878a8;}.body_dim{fill:#9888b8;}.body_mid{fill:#a898c8;}.body_lit{fill:#b8a8d8;}.body_hot{fill:#c8b8e8;}.core_bright{fill:#e8d8f8;}.eye_dim{fill:#7060d0;}.eye_glow{fill:#9080f0;}.eye_hot{fill:#c0a8ff;}@media (prefers-color-scheme: dark){.wisp_faint{fill:#2a2240;}.body_deep{fill:#3a2860;}.body_dim{fill:#5a3a90;}.body_mid{fill:#7a50c8;}.body_lit{fill:#9870f0;}.body_hot{fill:#b890ff;}.core_bright{fill:#e0c0ff;}.eye_dim{fill:#6080ff;}.eye_glow{fill:#90a0ff;}.eye_hot{fill:#c0d0ff;}}</style>
<g class="frame"><text font-family="ui-monospace,Menlo,Consolas,Monaco,&quot;Courier New&quot;,monospace" font-size="11" xml:space="preserve"><tspan x="221.2" y="20" class="body_dim">I</tspan><tspan x="227.6" y="20" class="body_mid">)11tttjjjjjjjjjjjj</tspan><tspan x="342.8" y="20" class="body_lit">jjjrrrr</tspan><tspan x="387.6" y="20" class="body_mid">t</tspan><tspan x="394.0" y="20" class="body_dim">i</tspan><tspan x="400.4" y="20" class="body_deep">:,,,,,,,</tspan><tspan x="221.2" y="32" class="body_dim">(</tspan><tspan x="227.6" y="32" class="body_mid">)1ttjjjjjjjjjjj</tspan><tspan x="323.6" y="32" class="body_lit">jjjrrrrrrr</tspan><tspan x="387.6" y="32" class="body_mid">t</tspan><tspan x="394.0" y="32" class="body_dim">l</tspan><tspan x="400.4" y="32" class="body_deep">;:,,,,,,,,</tspan><tspan x="214.8" y="44" class="body_dim">I</tspan><tspan x="221.2" y="44" class="body_mid">)1tj</tspan><tspan x="246.8" y="44" class="body_lit">jrrrrrrrrrrrrrrrr/////</tspan><tspan x="387.6" y="44" class="body_mid">j</tspan><tspan x="394.0" y="44" class="body_dim">I!</tspan><tspan x="406.8" y="44" class="body_deep">;:,,,,,,,,,</tspan><tspan x="214.8" y="56" class="body_dim">(</tspan><tspan x="221.2" y="56" class="body_mid">1tj</tspan><tspan x="240.4" y="56" class="body_lit">rrrr///////////////////j</tspan><tspan x="394.0" y="56" class="body_dim">(i!</tspan><tspan x="413.2" y="56" class="body_deep">;:,,,,,,,,,,,,,,,,,,,,,</tspan><tspan x="208.4" y="68" class="body_dim">I</tspan><tspan x="214.8" y="68" class="body_mid">)1j</tspan><tspan x="234.0" y="68" class="body_lit">rrr////fffffffffffffffffr</tspan><tspan x="394.0" y="68" class="body_mid">)</tspan><tspan x="400.4" y="68" class="body_dim">li!</tspan><tspan x="419.6" y="68" class="body_deep">;::,,,,,,,,,,,,,,,,,,,,</tspan><tspan x="202.0" y="80" class="body_dim">I</tspan><tspan x="208.4" y="80" class="body_mid">(1t</tspan><tspan x="227.6" y="80" class="body_lit">jr///ffffffxxxxxxxxxxxxff/</tspan><tspan x="394.0" y="80" class="body_mid">1</tspan><tspan x="400.4" y="80" class="body_dim">Ili!</tspan><tspan x="426.0" y="80" class="body_deep">!;::,,,,,,,,::;;!!;;,,,</tspan><tspan x="202.0" y="92" class="body_dim">(</tspan><tspan x="208.4" y="92" class="body_mid">)1j</tspan><tspan x="227.6" y="92" class="body_lit">r///fffxxxx</tspan><tspan x="298.0" y="92" class="body_hot">xxxLLLLLxxx</tspan><tspan x="368.4" y="92" class="body_lit">xxx/</tspan><tspan x="394.0" y="92" class="body_mid">t)</tspan><tspan x="406.8" y="92" class="body_dim">Ilii</tspan><tspan x="432.4" y="92" class="body_deep">!;;::::::;;!</tspan><tspan x="509.2" y="92" class="body_dim">!iiiii!</tspan><tspan x="554.0" y="92" class="body_deep">,,,,</tspan><tspan x="195.6" y="104" class="body_dim">I</tspan><tspan x="202.0" y="104" class="body_mid">)1tj</tspan><tspan x="227.6" y="104" class="body_lit">r//ffxxx</tspan><tspan x="278.8" y="104" class="body_hot">xLLLLLLLLLLLLLLLx</tspan><tspan x="387.6" y="104" class="body_lit">f</tspan><tspan x="394.0" y="104" class="body_mid">j1(</tspan><tspan x="413.2" y="104" class="body_dim">IIli!</tspan><tspan x="445.2" y="104" class="body_deep">!!;;;!!</tspan><tspan x="490.0" y="104" class="body_dim">!iilllllli</tspan><tspan x="554.0" y="104" class="body_deep">:,,,,</tspan><tspan x="195.6" y="116" class="body_dim">(</tspan><tspan x="202.0" y="116" class="body_mid">1tj</tspan><tspan x="221.2" y="116" class="body_lit">r//ffxx</tspan><tspan x="266.0" y="116" class="body_hot">xLLLLCCCCCCCCCCCCLL</tspan><tspan x="387.6" y="116" class="body_lit">fj</tspan><tspan x="400.4" y="116" class="body_mid">1)(</tspan><tspan x="419.6" y="116" class="body_dim">(Iliii!!!iiillIIIIIll</tspan><tspan x="554.0" y="116" class="body_deep">;,,,,,</tspan><tspan x="189.2" y="128" class="body_dim">(</tspan><tspan x="195.6" y="128" class="body_mid">)1t</tspan><tspan x="214.8" y="128" class="body_lit">jr/ffxx</tspan><tspan x="259.6" y="128" class="body_hot">xLLLCCCGGGGGGGGGGCCC</tspan><tspan x="387.6" y="128" class="body_lit">xr</tspan><tspan x="400.4" y="128" class="body_mid">t1))</tspan><tspan x="426.0" y="128" class="body_dim">(IllllillllIII(((IIl</tspan><tspan x="554.0" y="128" class="body_deep">!,,,,,</tspan><tspan x="189.2" y="140" class="body_mid">(1tj</tspan><tspan x="214.8" y="140" class="body_lit">r//fxx</tspan><tspan x="253.2" y="140" class="body_hot">xLLCCCGGGOOOOOOOOGGGCL</tspan><tspan x="394.0" y="140" class="body_lit">/j</tspan><tspan x="406.8" y="140" class="body_mid">t11)</tspan><tspan x="432.4" y="140" class="body_dim">(IIIlllIIII((((((Il!</tspan><tspan x="560.4" y="140" class="body_deep">:,,,,,</tspan><tspan x="182.8" y="152" class="body_dim">(</tspan><tspan x="189.2" y="152" class="body_mid">)1t</tspan><tspan x="208.4" y="152" class="body_lit">jr/ffx</tspan><tspan x="246.8" y="152" class="body_hot">xLLCCCGGO</tspan><tspan x="304.4" y="152" class="core_bright">%%%%%%0QQ</tspan><tspan x="362.0" y="152" class="body_hot">OOGGL</tspan><tspan x="394.0" y="152" class="body_lit">frj</tspan><tspan x="413.2" y="152" class="body_mid">tt1))</tspan><tspan x="445.2" y="152" class="body_lit">j/f/r</tspan><tspan x="477.2" y="152" class="body_mid">)</tspan><tspan x="483.6" y="152" class="body_dim">(((</tspan><tspan x="502.8" y="152" class="body_mid">(((((</tspan><tspan x="534.8" y="152" class="body_dim">(IIi</tspan><tspan x="560.4" y="152" class="body_deep">;:,,,,,</tspan><tspan x="182.8" y="164" class="body_mid">(1tj</tspan><tspan x="208.4" y="164" class="body_lit">r//fxx</tspan><tspan x="246.8" y="164" class="body_hot">LLLCCGGO</tspan><tspan x="298.0" y="164" class="core_bright">%</tspan><tspan x="304.4" y="164" class="body_mid">jt</tspan><tspan x="317.2" y="164" class="body_lit">f</tspan><tspan x="323.6" y="164" class="body_hot">CCLG</tspan><tspan x="349.2" y="164" class="core_bright">%QQQ</tspan><tspan x="374.8" y="164" class="body_hot">OGC</tspan><tspan x="394.0" y="164" class="body_lit">x/rj</tspan><tspan x="419.6" y="164" class="body_mid">tt</tspan><tspan x="432.4" y="164" class="body_lit">/</tspan><tspan x="438.8" y="164" class="body_dim">Ii</tspan><tspan x="451.6" y="164" class="body_mid">)</tspan><tspan x="458.0" y="164" class="body_lit">/</tspan><tspan x="464.4" y="164" class="body_hot">CGO</tspan><tspan x="483.6" y="164" class="core_bright">%</tspan><tspan x="490.0" y="164" class="body_mid">()))))(</tspan><tspan x="534.8" y="164" class="body_dim">(IIi</tspan><tspan x="560.4" y="164" class="body_deep">!::,,,,</tspan><tspan x="182.8" y="176" class="body_mid">)1j</tspan><tspan x="202.0" y="176" class="body_lit">jr/ffx</tspan><tspan x="240.4" y="176" class="body_hot">xLLCCGGO</tspan><tspan x="291.6" y="176" class="body_dim">I</tspan><tspan x="298.0" y="176" class="body_deep">;</tspan><tspan x="304.4" y="176" class="body_dim">i(</tspan><tspan x="317.2" y="176" class="body_lit">r</tspan><tspan x="323.6" y="176" class="body_hot">xL</tspan><tspan x="336.4" y="176" class="body_lit">f//</tspan><tspan x="355.6" y="176" class="body_hot">L</tspan><tspan x="362.0" y="176" class="core_bright">0QQ</tspan><tspan x="381.2" y="176" class="body_hot">OGL</tspan><tspan x="400.4" y="176" class="body_lit">f/rj</tspan><tspan x="426.0" y="176" class="body_deep">!,:</tspan><tspan x="445.2" y="176" class="body_dim">!</tspan><tspan x="451.6" y="176" class="body_mid">(</tspan><tspan x="458.0" y="176" class="body_lit">/</tspan><tspan x="464.4" y="176" class="body_hot">LL</tspan><tspan x="477.2" y="176" class="body_lit">f/</tspan><tspan x="490.0" y="176" class="body_hot">L</tspan><tspan x="496.4" y="176" class="body_mid">)))))(</tspan><tspan x="534.8" y="176" class="body_dim">((Il</tspan><tspan x="560.4" y="176" class="body_deep">!;:,,,,,</tspan><tspan x="176.4" y="188" class="body_dim">(</tspan><tspan x="182.8" y="188" class="body_mid">1tj</tspan><tspan x="202.0" y="188" class="body_lit">r//fx</tspan><tspan x="234.0" y="188" class="body_hot">xLLCCGGO</tspan><tspan x="285.2" y="188" class="body_dim">l</tspan><tspan x="291.6" y="188" class="body_deep">,,,;</tspan><tspan x="317.2" y="188" class="body_mid">(</tspan><tspan x="323.6" y="188" class="body_hot">L</tspan><tspan x="330.0" y="188" class="body_lit">fr</tspan><tspan x="342.8" y="188" class="body_mid">jj</tspan><tspan x="355.6" y="188" class="body_lit">j</tspan><tspan x="362.0" y="188" class="body_hot">L</tspan><tspan x="368.4" y="188" class="core_bright">00Q</tspan><tspan x="387.6" y="188" class="body_hot">OCx</tspan><tspan x="406.8" y="188" class="body_lit">f/</tspan><tspan x="419.6" y="188" class="body_dim">i</tspan><tspan x="426.0" y="188" class="body_deep">,,,,!</tspan><tspan x="458.0" y="188" class="body_lit">r</tspan><tspan x="464.4" y="188" class="body_hot">L</tspan><tspan x="470.8" y="188" class="body_lit">/r</tspan><tspan x="483.6" y="188" class="body_mid">j</tspan><tspan x="490.0" y="188" class="body_lit">j/</tspan><tspan x="502.8" y="188" class="body_mid">)))))(</tspan><tspan x="541.2" y="188" class="body_dim">(Il!</tspan><tspan x="566.8" y="188" class="body_deep">!;:,,,,</tspan><tspan x="176.4" y="200" class="body_mid">)1j</tspan><tspan x="195.6" y="200" class="body_lit">rr/ffx</tspan><tspan x="234.0" y="200" class="body_hot">LLCCGGO</tspan><tspan x="278.8" y="200" class="core_bright">O</tspan><tspan x="285.2" y="200" class="body_deep">;,,,,</tspan><tspan x="317.2" y="200" class="eye_dim">;</tspan><tspan x="323.6" y="200" class="eye_glow">/</tspan><tspan x="330.0" y="200" class="eye_dim">)</tspan><tspan x="336.4" y="200" class="body_mid">))11</tspan><tspan x="362.0" y="200" class="body_lit">f</tspan><tspan x="368.4" y="200" class="core_bright">%%0Q</tspan><tspan x="394.0" y="200" class="body_hot">GCx</tspan><tspan x="413.2" y="200" class="body_lit">f</tspan><tspan x="419.6" y="200" class="body_deep">;,,,,</tspan><tspan x="451.6" y="200" class="eye_dim">:l)</tspan><tspan x="470.8" y="200" class="body_mid">)))1</tspan><tspan x="496.4" y="200" class="body_lit">r</tspan><tspan x="502.8" y="200" class="body_mid">11)))(</tspan><tspan x="541.2" y="200" class="body_dim">(Ili</tspan><tspan x="566.8" y="200" class="body_deep">!;:,,,,</tspan><tspan x="176.4" y="212" class="body_mid">)tj</tspan><tspan x="195.6" y="212" class="body_lit">r/ffx</tspan><tspan x="227.6" y="212" class="body_hot">xLLCCGOO</tspan><tspan x="278.8" y="212" class="core_bright">Q</tspan><tspan x="285.2" y="212" class="body_dim">(</tspan><tspan x="291.6" y="212" class="body_deep">,,,,,,!</tspan><tspan x="336.4" y="212" class="body_dim">lI(</tspan><tspan x="355.6" y="212" class="body_mid">1</tspan><tspan x="362.0" y="212" class="body_hot">C</tspan><tspan x="368.4" y="212" class="core_bright">%%%0O</tspan><tspan x="400.4" y="212" class="body_hot">GLx</tspan><tspan x="419.6" y="212" class="body_dim">I</tspan><tspan x="426.0" y="212" class="body_deep">,,,,,,,</tspan><tspan x="470.8" y="212" class="body_dim">ilI</tspan><tspan x="490.0" y="212" class="body_mid">(</tspan><tspan x="496.4" y="212" class="body_lit">f</tspan><tspan x="502.8" y="212" class="body_mid">111))(</tspan><tspan x="541.2" y="212" class="body_dim">(Ili!</tspan><tspan x="573.2" y="212" class="body_deep">!;:,,,,</tspan><tspan x="170.0" y="224" class="body_mid">)1t</tspan><tspan x="189.2" y="224" class="body_lit">jr/fxx</tspan><tspan x="227.6" y="224" class="body_hot">LLCCGGO</tspan><tspan x="272.4" y="224" class="core_bright">QQ0</tspan><tspan x="291.6" y="224" class="body_deep">;,,,,,,;</tspan><tspan x="342.8" y="224" class="body_dim">i(</tspan><tspan x="355.6" y="224" class="body_lit">f</tspan><tspan x="362.0" y="224" class="core_bright">%%%%%Q</tspan><tspan x="400.4" y="224" class="body_hot">OGLx</tspan><tspan x="426.0" y="224" class="body_deep">;,,,,,,,!</tspan><tspan x="483.6" y="224" class="body_dim">l</tspan><tspan x="490.0" y="224" class="body_mid">11111))(</tspan><tspan x="541.2" y="224" class="body_dim">(Ilii</tspan><tspan x="573.2" y="224" class="body_deep">!;:,,,,</tspan><tspan x="170.0" y="236" class="body_mid">)1j</tspan><tspan x="189.2" y="236" class="body_lit">r/ffx</tspan><tspan x="221.2" y="236" class="body_hot">xLLCGGO</tspan><tspan x="266.0" y="236" class="core_bright">OQ00%</tspan><tspan x="298.0" y="236" class="body_lit">j</tspan><tspan x="304.4" y="236" class="body_deep">,,,,:</tspan><tspan x="336.4" y="236" class="body_dim">i(</tspan><tspan x="349.2" y="236" class="body_lit">x</tspan><tspan x="355.6" y="236" class="core_bright">%%%%%%%Q</tspan><tspan x="406.8" y="236" class="body_hot">OGLx</tspan><tspan x="432.4" y="236" class="body_mid">1</tspan><tspan x="438.8" y="236" class="body_deep">,,,,,:!</tspan><tspan x="483.6" y="236" class="body_dim">i</tspan><tspan x="490.0" y="236" class="body_mid">tt111))(</tspan><tspan x="541.2" y="236" class="body_dim">(Illi!</tspan><tspan x="579.6" y="236" class="body_deep">;:,,,,</tspan><tspan x="170.0" y="248" class="body_mid">1tj</tspan><tspan x="189.2" y="248" class="body_lit">r/ffx</tspan><tspan x="221.2" y="248" class="body_hot">LLCCGOO</tspan><tspan x="266.0" y="248" class="core_bright">Q00%%%%</tspan><tspan x="310.8" y="248" class="body_lit">x</tspan><tspan x="317.2" y="248" class="body_mid">jt</tspan><tspan x="330.0" y="248" class="body_lit">j</tspan><tspan x="336.4" y="248" class="body_hot">C</tspan><tspan x="342.8" y="248" class="core_bright">%%%%%%%%%0Q</tspan><tspan x="413.2" y="248" class="body_hot">OCLx</tspan><tspan x="438.8" y="248" class="body_lit">f</tspan><tspan x="445.2" y="248" class="body_mid">1</tspan><tspan x="451.6" y="248" class="body_dim">lii(</tspan><tspan x="477.2" y="248" class="body_mid">jjttt111)(</tspan><tspan x="541.2" y="248" class="body_dim">(IIli!</tspan><tspan x="579.6" y="248" class="body_deep">;;:,,,</tspan><tspan x="170.0" y="260" class="body_mid">1t</tspan><tspan x="182.8" y="260" class="body_lit">jr/fx</tspan><tspan x="214.8" y="260" class="body_hot">xLLCGGO</tspan><tspan x="259.6" y="260" class="core_bright">QQ0%%%%%%%%%%%%%%%%%%%%0Q</tspan><tspan x="419.6" y="260" class="body_hot">OCLx</tspan><tspan x="445.2" y="260" class="body_lit">ff/rrr</tspan><tspan x="483.6" y="260" class="body_mid">jjttt11))</tspan><tspan x="541.2" y="260" class="body_dim">(IIli!</tspan><tspan x="579.6" y="260" class="body_deep">!;:,,,</tspan><tspan x="170.0" y="272" class="body_mid">tt</tspan><tspan x="182.8" y="272" class="body_lit">r/ffx</tspan><tspan x="214.8" y="272" class="body_hot">LLCCGO</tspan><tspan x="253.2" y="272" class="core_bright">QQ0%%%%%%%%%%%%%%%%%%%%%%0Q</tspan><tspan x="426.0" y="272" class="body_hot">OCLx</tspan><tspan x="451.6" y="272" class="body_lit">ff//rr</tspan><tspan x="490.0" y="272" class="body_mid">jjtt11))</tspan><tspan x="541.2" y="272" class="body_dim">(IIli!</tspan><tspan x="579.6" y="272" class="body_deep">!;:,,,</tspan><tspan x="170.0" y="284" class="body_mid">tt</tspan><tspan x="182.8" y="284" class="body_lit">r/ffx</tspan><tspan x="214.8" y="284" class="body_hot">LLCGOO</tspan><tspan x="253.2" y="284" class="core_bright">Q0%%%%%%%%%%%%%%%%%%%%%%%%0Q</tspan><tspan x="432.4" y="284" class="body_hot">GCLx</tspan><tspan x="458.0" y="284" class="body_lit">ff/rrj</tspan><tspan x="496.4" y="284" class="body_mid">jtt11))</tspan><tspan x="541.2" y="284" class="body_dim">(IIli!</tspan><tspan x="579.6" y="284" class="body_deep">!;:,,,</tspan><tspan x="170.0" y="296" class="body_lit">j</tspan><tspan x="176.4" y="296" class="body_mid">t</tspan><tspan x="182.8" y="296" class="body_lit">r/fx</tspan><tspan x="208.4" y="296" class="body_hot">xLLCGO</tspan><tspan x="246.8" y="296" class="core_bright">Q0%%%%%%%%%%%%%%%%%%%%%%%%%%0O</tspan><tspan x="438.8" y="296" class="body_hot">GCL</tspan><tspan x="458.0" y="296" class="body_lit">xff/rr</tspan><tspan x="496.4" y="296" class="body_mid">jjt11))</tspan><tspan x="541.2" y="296" class="body_dim">(IIli!</tspan><tspan x="579.6" y="296" class="body_deep">;:,,,</tspan><tspan x="176.4" y="308" class="body_mid">t</tspan><tspan x="182.8" y="308" class="body_lit">r/fx</tspan><tspan x="208.4" y="308" class="body_hot">xLLCO</tspan><tspan x="240.4" y="308" class="core_bright">OQ0%%%%%%%%%%%%%%%%%%%%%%%%%%%Q</tspan><tspan x="438.8" y="308" class="body_hot">OGCL</tspan><tspan x="464.4" y="308" class="body_lit">xf//rj</tspan><tspan x="502.8" y="308" class="body_mid">jtt1))(</tspan><tspan x="547.6" y="308" class="body_dim">IIli!</tspan><tspan x="579.6" y="308" class="body_deep">;:,,,</tspan><tspan x="176.4" y="320" class="body_mid">t</tspan><tspan x="182.8" y="320" class="body_lit">r/fx</tspan><tspan x="208.4" y="320" class="body_hot">xLCGO</tspan><tspan x="240.4" y="320" class="core_bright">Q0%%%%%%%%%%%%%%%%%%%%%%%%%%%%0Q</tspan><tspan x="445.2" y="320" class="body_hot">OCLx</tspan><tspan x="470.8" y="320" class="body_lit">xf/rr</tspan><tspan x="502.8" y="320" class="body_mid">jtt1))(</tspan><tspan x="547.6" y="320" class="body_dim">IIli</tspan><tspan x="573.2" y="320" class="body_deep">!;:,,,</tspan><tspan x="176.4" y="332" class="body_lit">rj/fx</tspan><tspan x="208.4" y="332" class="body_hot">xLCG</tspan><tspan x="234.0" y="332" class="core_bright">Q0%%%%%%%%%%%%%%%%%%%%%%%%%%%%%%0O</tspan><tspan x="451.6" y="332" class="body_hot">GCL</tspan><tspan x="470.8" y="332" class="body_lit">xf//rj</tspan><tspan x="509.2" y="332" class="body_mid">jt11)(</tspan><tspan x="547.6" y="332" class="body_dim">IIli</tspan><tspan x="573.2" y="332" class="body_deep">!;:,,</tspan><tspan x="182.8" y="344" class="body_mid">j</tspan><tspan x="189.2" y="344" class="body_lit">/fx</tspan><tspan x="208.4" y="344" class="body_hot">xLCG</tspan><tspan x="234.0" y="344" class="core_bright">Q0%%%%%%%%%%%%%%%%%%%%%%%%%%%%%%%Q</tspan><tspan x="451.6" y="344" class="body_hot">OGCx</tspan><tspan x="477.2" y="344" class="body_lit">xf/rj</tspan><tspan x="509.2" y="344" class="body_mid">jt11)(</tspan><tspan x="547.6" y="344" class="body_dim">(li!</tspan><tspan x="573.2" y="344" class="body_deep">!;,,,</tspan><tspan x="182.8" y="356" class="body_lit">rr/fx</tspan><tspan x="214.8" y="356" class="body_hot">LLG</tspan><tspan x="234.0" y="356" class="core_bright">0%%%%%%%%%%%%%%%%%%%%%%%%%%%%%%%%0Q</tspan><tspan x="458.0" y="356" class="body_hot">GCL</tspan><tspan x="477.2" y="356" class="body_lit">xf/rr</tspan><tspan x="509.2" y="356" class="body_mid">jtt1)(</tspan><tspan x="547.6" y="356" class="body_dim">(li!</tspan><tspan x="573.2" y="356" class="body_deep">;:,,,</tspan><tspan x="189.2" y="368" class="body_lit">r/f</tspan><tspan x="227.6" y="368" class="body_hot">G</tspan><tspan x="234.0" y="368" class="core_bright">0%%%%%%%%%%%%%%%%%%%%%%%%%%%%%%%%</tspan><tspan x="464.4" y="368" class="body_hot">CLx</tspan><tspan x="483.6" y="368" class="body_lit">f//r</tspan><tspan x="509.2" y="368" class="body_mid">jtt1)(</tspan><tspan x="547.6" y="368" class="body_dim">(li</tspan><tspan x="566.8" y="368" class="body_deep">!;:,,</tspan><tspan x="246.8" y="380" class="core_bright">%%%%%%%%%%%000000%%%%%%%%%%%</tspan><tspan x="477.2" y="380" class="body_hot">L</tspan><tspan x="483.6" y="380" class="body_lit">xf/rj</tspan><tspan x="515.6" y="380" class="body_mid">jt1)(</tspan><tspan x="547.6" y="380" class="body_dim">(li</tspan><tspan x="566.8" y="380" class="body_deep">;:,,,</tspan><tspan x="253.2" y="392" class="core_bright">%%%%%%%%%00QQQQQ0%%%%%%%%</tspan><tspan x="490.0" y="392" class="body_lit">f/rr</tspan><tspan x="515.6" y="392" class="body_mid">jt1)(</tspan><tspan x="547.6" y="392" class="body_dim">(l!</tspan><tspan x="566.8" y="392" class="body_deep">;:,,</tspan><tspan x="266.0" y="404" class="core_bright">%%%%%%0QQQO</tspan><tspan x="336.4" y="404" class="body_hot">O</tspan><tspan x="342.8" y="404" class="core_bright">OQQ0%%%%%%</tspan><tspan x="502.8" y="404" class="body_lit">/r</tspan><tspan x="515.6" y="404" class="body_mid">jt1)(</tspan><tspan x="547.6" y="404" class="body_dim">(l</tspan><tspan x="560.4" y="404" class="body_deep">!;,,,</tspan><tspan x="272.4" y="416" class="core_bright">%%%%0QQ</tspan><tspan x="317.2" y="416" class="body_hot">OOOOOOO</tspan><tspan x="362.0" y="416" class="core_bright">Q0%%%%</tspan><tspan x="509.2" y="416" class="body_lit">r</tspan><tspan x="515.6" y="416" class="body_mid">jt1))</tspan><tspan x="547.6" y="416" class="body_dim">(i</tspan><tspan x="560.4" y="416" class="body_deep">;:,,</tspan><tspan x="278.8" y="428" class="core_bright">00QQO</tspan><tspan x="310.8" y="428" class="body_hot">OOGGGGGOO</tspan><tspan x="368.4" y="428" class="core_bright">Q0%</tspan><tspan x="515.6" y="428" class="body_lit">j</tspan><tspan x="522.0" y="428" class="body_mid">t11)</tspan><tspan x="547.6" y="428" class="body_dim">(i</tspan><tspan x="560.4" y="428" class="body_deep">;,,,</tspan><tspan x="291.6" y="440" class="body_hot">OOGGGCCCCGGGO</tspan><tspan x="374.8" y="440" class="core_bright">Q</tspan><tspan x="522.0" y="440" class="body_mid">jt1)</tspan><tspan x="547.6" y="440" class="body_dim">Ii</tspan><tspan x="560.4" y="440" class="body_deep">:,,</tspan><tspan x="298.0" y="452" class="body_hot">CCCCCCCCCCG</tspan><tspan x="534.8" y="452" class="body_mid">1)</tspan><tspan x="547.6" y="452" class="body_dim">I!</tspan><tspan x="560.4" y="452" class="body_deep">:,</tspan><tspan x="310.8" y="464" class="body_lit">/x</tspan><tspan x="323.6" y="464" class="body_hot">xxLLLC</tspan><tspan x="547.6" y="464" class="body_dim">I</tspan><tspan x="554.0" y="464" class="body_deep">!,,</tspan></text></g>
</svg>