<svg xmlns="http://www.w3.org/2000/svg" viewBox="110 20 310 125" role="img" aria-label=".adf logo">
<title>.adf</title>
<g fill="#000000" shape-rendering="crispEdges">
<rect x="126" y="117" width="18" height="18" fill="#000000"/>
<rect x="171" y="31" width="15" height="15" fill="#000000"/>
<rect x="186" y="31" width="15" height="15" fill="#000000"/>
<rect x="201" y="31" width="15" height="15" fill="#000000"/>
<rect x="216" y="46" width="15" height="15" fill="#000000"/>
<rect x="171" y="61" width="15" height="15" fill="#000000"/>
<rect x="186" y="61" width="15" height="15" fill="#000000"/>
<rect x="201" y="61" width="15" height="15" fill="#000000"/>
<rect x="216" y="61" width="15" height="15" fill="#000000"/>
<rect x="156" y="76" width="15" height="15" fill="#000000"/>
<rect x="216" y="76" width="15" height="15" fill="#000000"/>
<rect x="156" y="91" width="15" height="15" fill="#000000"/>
<rect x="216" y="91" width="15" height="15" fill="#000000"/>
<rect x="156" y="106" width="15" height="15" fill="#000000"/>
<rect x="201" y="106" width="15" height="15" fill="#000000"/>
<rect x="216" y="106" width="15" height="15" fill="#000000"/>
<rect x="171" y="121" width="15" height="15" fill="#000000"/>
<rect x="186" y="121" width="15" height="15" fill="#000000"/>
<rect x="216" y="121" width="15" height="15" fill="#000000"/>
<rect x="302" y="31" width="15" height="15" fill="#000000"/>
<rect x="302" y="46" width="15" height="15" fill="#000000"/>
<rect x="257" y="61" width="15" height="15" fill="#000000"/>
<rect x="272" y="61" width="15" height="15" fill="#000000"/>
<rect x="287" y="61" width="15" height="15" fill="#000000"/>
<rect x="302" y="61" width="15" height="15" fill="#000000"/>
<rect x="242" y="76" width="15" height="15" fill="#000000"/>
<rect x="302" y="76" width="15" height="15" fill="#000000"/>
<rect x="242" y="91" width="15" height="15" fill="#000000"/>
<rect x="302" y="91" width="15" height="15" fill="#000000"/>
<rect x="242" y="106" width="15" height="15" fill="#000000"/>
<rect x="302" y="106" width="15" height="15" fill="#000000"/>
<rect x="257" y="121" width="15" height="15" fill="#000000"/>
<rect x="272" y="121" width="15" height="15" fill="#000000"/>
<rect x="287" y="121" width="15" height="15" fill="#000000"/>
<rect x="302" y="121" width="15" height="15" fill="#000000"/>
<rect x="358" y="31" width="15" height="15" fill="#000000"/>
<rect x="373" y="31" width="15" height="15" fill="#000000"/>
<rect x="388" y="31" width="15" height="15" fill="#000000"/>
<rect x="343" y="46" width="15" height="15" fill="#000000"/>
<rect x="343" y="61" width="15" height="15" fill="#000000"/>
<rect x="328" y="76" width="15" height="15" fill="#000000"/>
<rect x="343" y="76" width="15" height="15" fill="#000000"/>
<rect x="358" y="76" width="15" height="15" fill="#000000"/>
<rect x="373" y="76" width="15" height="15" fill="#000000"/>
<rect x="343" y="91" width="15" height="15" fill="#000000"/>
<rect x="343" y="106" width="15" height="15" fill="#000000"/>
<rect x="343" y="121" width="15" height="15" fill="#000000"/>
</g>
</svg>
